<mxfile host="app.diagrams.net" modified="2023-03-11T17:40:07.669Z" agent="5.0 (Macintosh; Intel Mac OS X 10_15_7) AppleWebKit/605.1.15 (KHTML, like Gecko) Version/16.3 Safari/605.1.15" etag="nY2CrHzodqcL5eK88Drk" version="20.8.23" type="github">
  <diagram name="Page-1" id="gmUonlfQ-4KC8PVBsPVI">
    <mxGraphModel dx="708" dy="-726" grid="1" gridSize="10" guides="1" tooltips="1" connect="1" arrows="1" fold="1" page="1" pageScale="1" pageWidth="827" pageHeight="1169" math="0" shadow="0">
      <root>
        <mxCell id="0" />
        <mxCell id="1" parent="0" />
        <mxCell id="BPwQdtELqWIufC44Yn8g-11" value="" style="rounded=0;whiteSpace=wrap;html=1;gradientColor=#B100D6;strokeColor=none;fillColor=#FF91FB;gradientDirection=south;" vertex="1" parent="1">
          <mxGeometry x="120" y="1300" width="170" height="310" as="geometry" />
        </mxCell>
        <mxCell id="BPwQdtELqWIufC44Yn8g-6" value="" style="shape=image;verticalLabelPosition=bottom;labelBackgroundColor=default;verticalAlign=top;aspect=fixed;imageAspect=0;image=data:image/png,iVBORw0KGgoAAAANSUhEUgAABL4AAAYNCAYAAADEI5L+AAAAAXNSR0IB2cksfwAAAAlwSFlzAAALEwAACxMBAJqcGAAA8c5JREFUeJzs3Yd/XNWd///9A36PTbCk6U3dvfdGb6H3bmzAoSYhbUllk90kJCH5JtnUJYG03WzqhkA2EMBWmxk12xhMwKG4yOrFFVzU3r97zuiOxx0iG0mX19P5MKORLCu6d+4993M/53P+SQAAAAAAAIAH/dNI/wAAAAAAAADAqUDiCwAAAAAAAJ5E4gsAAAAAAACeROILAAAAAAAAnkTiCwAAAAAAAJ5E4gsAAAAAAACeROILAAAAAAAAnkTiCwAAAAAAAJ5E4gsAAAAAAACeROILAAAAAAAAnkTiCwAAAAAAAJ5E4gsAAAAAAACeROILAAAAAAAAnkTiCwAAAAAAAJ5E4gsAAAAAAACeROILAAAAAAAAnkTiCwAAAAAAAJ5E4gsAAAAAAACeROILAAAAAAAAnkTiCwAAAAAAAJ5E4gsAAAAAAACeROILAAAAAAAAnkTiCwAAAAAAAJ5E4gsAAAAAAACeROILAAAAAAAAnkTiCwAAAAAAAJ5E4gsAAAAAAACeROILAAAAAAAAnkTiCwAAAAAAAJ5E4gsAAAAAAACeROILAAAAAAAAnkTiCwAAAAAAAJ5E4gsAAAAAAACeROILAAAAAAAAnkTiCwAAAAAAAJ5E4gsAAAAAAACeROILAAAAAAAAnkTiCwAAAAAAAJ5E4gsAAAAAAACeROILAAAAAAAAnkTiCwAAAAAAAJ5E4gsAAAAAAACeROILAAAAAAAAnkTiCwAAAAAAAJ5E4gsAAAAAAACeROILAAAAAAAAnkTiCwAAAAAAAJ5E4gsAAAAAAACeROILAAAAAAAAnkTiCwAAAAAAAJ5E4gsAAAAAAACeROILAAAAAAAAnkTiCwAAAAAAAJ5E4gsAAAAAAACeROILAAAAAAAAnkTiCwAAAAAAAJ5E4gsAAAAAAACeROILAAAAAAAAnkTiCwAAAAAAAJ5E4gsAAAAAAACeROILAAAAAAAAnkTiCwAAAAAAAJ5E4gsAAAAAAACeROILAAAAAAAAnkTiCwAAAAAAAJ5E4gsAAAAAAACeROILAAAAAAAAnkTiCwAAAAAAAJ5E4gsAAAAAAACeROILAAAAAAAAnkTiCwAAAAAAAJ5E4gsAAAAAAACeROILAAAAAAAAnkTiCwAAAAAAAJ5E4gsAAAAAAACeROILAAAAAAAAnkTiCwAAAAAAAJ5E4gsAAAAAAACeROILAAAAAAAAnkTiCwAAAAAAAJ5E4gsAAAAAAACeROILAAAAAAAAnkTiCwAAAAAAAJ5E4gsAAAAAAACeROILAAAAAAAAnkTiCwAAAAAAAJ5E4gsAAAAAAACeROILAAAAAAAAnkTiCwAAAAAAAJ5E4gsAAAAAAACeROILAAAAAAAAnkTiCwAAAAAAAJ5E4gsAAAAAAACeROILAAAAAAAAnkTiCwAAAAAAAJ5E4gsAAAAAAACeROILAAAAAAAAnkTiCwAAAAAAAJ5E4gsAAAAAAACeROILAAAAAAAAnkTiCwAAAAAAAJ5E4gsAAAAAAACeROILAAAAAAAAnkTiCwAAAAAAAJ5E4gsAAAAAAACeROILAAAAAAAAnkTiCwAAAAAAAJ5E4gsAAAAAAACeROILAAAAAAAAnkTiCwAAAAAAAJ5E4gsAAAAAAACeROILAAAAAAAAnkTiCwAAAAAAAJ5E4gsAAAAAAACeROILAAAAAAAAnkTiCwAAAAAAAJ5E4gsAAAAAAACeROILAAAAAAAAnkTiCwAAAAAAAJ5E4gsAAAAAAACeROILAAAAAAAAnkTiCwAAAAAAAJ5E4gsAAAAAAACeROILAAAAAAAAnkTiCwAAAAAAAJ5E4gsAAAAAAACeROILAAAAAAAAnkTiCwAAAAAAAJ5E4gsAAAAAAACeROILAAAAAAAAnkTiCwAAAAAAAJ5E4gsAAAAAAACeROILAAAAAAAAnkTiCwAAAAAAAJ5E4gsAAAAAAACeROILAAAAAAAAnkTiCwAAAAAAAJ5E4gsAAAAAAACeROILAAAAAAAAnkTiCwAAAAAAAJ5E4gsAAAAAAACeROILAAAAAAAAnkTiCwAAAAAAAJ5E4gsAAAAAAACeROILAAAAAAAAnkTiCwAAAAAAAJ5E4gsAAAAAAACeROILAAAAAAAAnkTiCwAAAAAAAJ5E4gsAAAAAAACeROILAAAAAAAAnkTiCwAAAAAAAJ5E4gsAAAAAAACeROILAAAAAAAAnkTiCwAAAAAAAJ5E4gsAAAAAAACeROILAAAAAAAAnkTiCwAAAAAAAJ5E4gsAAAAAAACeROILAAAAAAAAnkTiCwAAAAAAAJ5E4gsAAAAAAACeROILAAAAAAAAnkTiCwAAAAAAAJ5E4gsAAAAAAACeROILAAAAAAAAnkTiCwAAAAAAAJ5E4gsAAAAAAACeROILAAAAAAAAnkTiCwAAAAAAAJ5E4gsAAAAAAACeROILAEaxwcGc528z+ofi2N9z0AYwmrn76bECwNh1ovfxic5z0sChMTB4aAAAkIPEFwCMAYdf9A+Yof+xrggY+AMARrWB48fhiawjMl8DI/NjAwDGJBJfADBGDfT12xjsHzjGhUHGiSpnRipOZKR/PmJ0B/sPQYzdONF79W2fzw77MnNTqHeQpBgA4FAkvgBglBoYGDjiAiF3hO9OaXTj8KKvQfPigI558QAAwGjUPzhgo885ceWe5/qG4miOcqoDAMAi8QUAo9TRklPmNZMQMzF0e1vHurltb5ofNW82MBRvv2/YqQj3p/hHY6R/foIgCOLdC3NDxxQ49w8c9uLRpkMCAJCDxBcAjHKHTuk4mPpRr/NCn7kKMAN+NwOWuR8+OHDA+W+fzH/3ab/eHHxLu/v3aNfALu0e3D0Ub47q2DWw57gx0j8fMbrjRPsPQRAjHzv7d2efm/ftHr1lY2DwQDY0aE52Q72/sue6I3uCmWn/g9nMGAAAB5H4AoBRzFRs2QovDdpkV7/M1I9eHXD+DDrP+s3zwX16a2C3dvb1qPtAu1rfatK23W/o1Z2vaeP2V/RS90t6oeMFrWtfq7Vta2w0tjc4Hz8/pmNt2zqCOGasaV1LEMeMxpY1xAjG0baBec19//69e6Ne73lVm3a8oebdW9W5r9We497ULufs96YT+52zX69zDuyz58VBt9k9FV8AgKMg8QUAo9XQ4N3t82sG9/udP7v271LHnk5t3tusV3e9oZd6Nmpd5wuq71yr2s4GpTrrVN2ZUrq9VrUdadV11qquu86JtGp70kp31wxFakQj1ZUkiGNGsrOGIP7hqOmoJkZxJJ1zVE1H0kZ1e032uXndREVHSpXtaVW0pVTdllaqtV71bY1q7Hjenu+2bN+qbTtb1fFWl3b27tY+W+U8SM4LAHBUJL4A4FQZ6kNi+3Kp31ZoZcI0re9X/2Bf9i61bdl1eIf6wUyDXzNFsXnfNr20a4PW7lij+h1p1XRXqr6rTun2lA2T3LIfdyaV6qhRbVfKidojoq4zlY1UZ5Vqu2tU15O0ke6qtuG+lvke/3iYn+X4kT7FcaJ/nzgZkWyvVsP2OvtY31Obfd3sh+bx8H3CvJ753PG3X8q58CWGEzXDjKN/32R70ob7dTVtVYduc+cYkuyoPOH3H/5+R4zuqD5umERWsqVONc21NszzZFutjVR7nSpbK1TdXjW0rw3td63O/tZSbaNyKFlmkmaptrSe716njTs3atveberp61Zvb/9RTsmZRgHmvDpo2wIMZM+12cVglFsw5v6NofP20KusDQMAYw+JLwA4RQYH+3OeZ/qPZFdZzG3OKw1NY+zTfu3Tzt4d6tzbqa37muxA/oWu9VrbuUaNnY1a05V5rG1OH1EZY6qoTEVXpqorpfR258Kiu1ZV5uLAVIA5z+uc1+p3NKh++xqt2bFOjdvXqqFnjeq7G22Y5wdj7XGjrqvxuFHfvYbwcNR21tt9pq6rwe5L6Y667McmGsz+dJxg/zl+nOj3c+JoGF50OMcJ51hzrDDb2/1ad7ubfcJ9zVSfnspId9QTYzhMIssmuZ1zVd322ux5q7qrRpUdVarvqbefr2qrVmVrlU1wmUqwVFc6E83VtqI51ZZUVUuValqc82FrrdLNDTZe7HxRr+78u1r2Nmtn/05bLT2og+ff/v7+oZ5gR56LD/Ttz1lcJnOjKhNkvABgrCLxBQCnyL7BfTadZZlEl7se+0DOo+PA4H6b7Gp+q0mv7Pib1nWtVaNzYWcqKUyY5JaZqmjvfLelbeJrXc86JXtSSu+oVaqnzl4ImK8xiazGHuei2bkANUmyujbn721zLgw2VerZjc/pybVP6H+qfqVHn3pMjz75mP7zj4/o+7/7gb732+/rB7//oX74hx/ZMK+dKMzfOV6c8O//5hTHCX4+Ynjh7i/m+Xd/8z194xff1Nd/9rAeevSr+upjX9PDj33VxtcffUhf+8lXsmE+zrz21ePG1x/92ns6TvT7OXF8ZVjx1R8fuo0O//m+8pMvO9va+brHHso+Pvzzr+s7//Mfb+v4cKIw+9Rx49ffJ0ZznGD7/fDx7+qRJ3+gnz79Y/1Xxc/0+9pf64nnH9czrzytyjdWq6apRqnmlD2H1XbU2URrsu1gIsxM5U+2plTVXJOp+nLOgdVtKVW21NivszeFTHKtJWX7h73c8bKad7doV98e2xkstxWYSWjZRNjgYLbC6/AVIt1FZiRaiAHAWETiCwBOkf6hzNZgbsJrqF+Xace7Z+BNde3rss17zd3p2lZn4N5ararOStVsr9Ga7WttBYWdptiTtnfF63bVKrU9qYr21aptr1dDR4Ma2uqV3pLSsxv+qt9U/Frf/dW39cXvfUEffuCDWnHPDbr02vO19Jy5mrtgqqbPGq8pU8s0cVKxJo0v1vjShEoKIypOhO1jWXFMpUXR7MenMsy/QYztyGzHoPMYykZxwu/sQ0FnXwplw3yciTAxRsJsy7fzdWb7FsV9KowV2H0hsz9EVEQQx4mS4rjKSgtVPr5IkyaXacbsKVq0dJ7OufAsXXT5hbrl3ht132fu1he+86BzTvsP/eLpn+uJhidU9Vqlc85rVE2bqRprsP2/TPLLJrnaU0q2VtlYvbVS1aYKrL3WRrXzNVXbqu0588VdL6p9b8dQJVhmBeRsc/yBwaHQEa0HXCS+AGDsIfEFAKfKYQNmN9nV0dtupzE+371ejR1rM3ezu2tVu6NBtTvr7BRFU8VlXjdhqrdMNHSYcAbwWyv05w1/0s/+91E99P0v6Y77b9P5V56jWYumq3RSoWLOBWsk6lfEn6ewL895zFci4FyYBpyL0kBEhb6QEgXOxWkgpGJ/UIUF/iMike9TkS9AEMcMs4+4+0tJIKBpxcWaWV5qY9b4Mk0tLrQxvbRYM8pKNKO0lBjjMb2kxIbZ1vZjZ9vOmTjebm8TM8vKVBYKZY4hvuNHoT9AvIcjkeeci/LDKiqIOOejsGJ5QUXzg4r7ws65KqxA/mkKOOewYKhAkXhAxRPimrNkpi6+9iItu/smfer/fVo//tNP9PT6p1X1WrVqtlTbm0d2+mNHyp4za1ozFWCmQsz0BKvqPNhcv7a5zq50bFY/bj/Qob3al0l+ZVaSyZy6sy0KBkl8AcAYR+ILAE6VoRvIpvLrLWdY3ba/1fbsMlMQzeDc9N2q7k6qpifzaHqbmOkcaTO1o6VetT1J1Xc5A/nmlP6y5kn96Fff18cfvF+XOgP/mfOmqzARUShYoIL89yvky1M8GLSRMBcVTkSDoUMi5o8cEvFg2EYiFLHhfkwQbycKw1G738QCzv4WDmjG5AmaNXWiZk6Z4Dwv05zpkzV3xhTNnzVdC+fM1KK5s7R47lxijMaiOXNsLJw928asqZM0bWKZZk+bZLe32fZzpk9RWSJh949Y6PgRD0eOGyf6+8TYDnOuKgyHVRSJ2DDHkHjI75yrfDZKgtFsFAUzx5mIz+ec6woULMhXLJhnKw5nz5ninBMv1Ee+8GF969f/od80/FGrm5KZyi/TRL8js3qknf7YWqvUtlolt6Zs8stUWJtKsIbm+sxUyJ2terN371BVdt9Q1XZO4ivbBwwAMNaQ+AKAU8Q0q98zsFvNb23T33o2qL69zq5KZQbiZvqibdS7PW37dJmpjA3d9XZlqrUtjWp4o16/+OujevA/Pq0rll2s6XMnKxYPKRLwK+EPKe4LZi4WQiGb5DLVXEXBUDbMx4mIubgMORcZQedCIpMIC5skmLmojEQVCQePG+FQ4Lhxqv8+McrDuXh1t3MsGtTsWVM1f/50J6ZmYt5MLZg/SwsXzNaihXO1eNE8JxbYWLJ4oZYunHfcOH3RfGJYsXBYsWTx/EMis/3m2W1pYsnieXYbL148W3Od49PcuVM1b+4MO4XN7BfmuHO8GPH9lzilcaLtb27a5EY4VKBY2Kd4xG/DVH2Z81ysIGDDnPdMAsyE+VyJ8z1M5WAkL19hv0+BYL78MZ+mLpyqy265VF/87uf12BP/qedeekb1rQ2qb2vM3FByos4JkwzLRmvK9sJsaG50ztWvaOubW7VrYI/2De51zuK9yq7+ODB4SK8vAMDYQeILAE6Rlj3NerXn72psb7B3ntPdNarfkWlCbxrzmgb29WYFtM5a1ZmmvJue0y+feUwf+eLdOvPyJRpfXmqTCsECn62gMAmtuDPQjwYKFA/5nIsBXybJFQ5n74abBFcm0eVToX8ogn4bRaHMHfWYuaMeyD+YIBuqEDPP380wP88pjZxEIHHyI7stnX2rNBrSkrnTdebCmTpr0QydvXimTp/vxLzZNpbOneXE7EzMmWvj9DmziePEGXPnDDPmDSuy2+sYsXjONC2aPVXnLp1rt/fZi2c7236OJhYl7HGqyLzHT2n4iVEdx99+udVfbtVx7jnJ3OQx5zJz8yYbblVzKKSQE+YGTjwUc74+ohJ/TGXOY3G+c77Ly1O4wK9JE8fr/EvP070P3qsfPPlD/fWNv6qmu1oVnats9Vd1S0pVrQcTYKZJvukLZqrD/t62Uc07m7Wnd8/BKZCDIukFAGMUiS8AOIaBvsyKjJlpD4PqHRw4OMXBebJ/6HOZ2RDmP/u1Y6BbG998TY07XlC6q94muUxSq6E9qbU9mYov02+kdsca1e9oUKo5aRvSP/Dvn9QFF52jyeNLbdImWnBw6iJBjM4IZ5+XxCM6Y/4cnbNknhNzbJjpcPNmzNDs6dM0Z8Z0zZ05wz6aj93XiLEV7rYzMXO62bZTdO7S+TpvyVydv3SOzl48VxNKEjbxPvL7J/FeDltVGPDbajDz3DTSP/uCM/WZLz+g3z/9WyU3Vyq5rcpOd7T9v7pSqupIq6Y1rbrWBj1nXm+p0br2Rm3e9Zp29nWpVweyizMfTIANOKd/Z4Qw2H9w8EBuDABGHRJfAHAcAwMDdpnzw1/LbXZr+oDs7t+jLbs2a33r82pozlRzpTudQXRbjepMs3qz1HpLUut3vagXd2zQX9Y/pYd/+hXdcNc1Kp9ZolDUl5n+5wzUo36/ncY40hcOBHGiMJUX5rEoGtKiWdNtxc9Zi2bZyq/ZU6dqxpTJR43p06Yc83PE6IiZU6dk46jbcOo0TZs0XovmTtfp86fr7IWzdMaCWRpfHCfxRYx4mCpoE6aKrDgUtudVv2+cXfxlwrRSXXPbFfrWz76pyo2VqmvJrPpoKr1q2tOqaKqy53Dz2uptVapqTqqhfZ227G7S3oG9GhzoGxoLKNP8fqgazIwN+gZ6D64QCQAYNUh8AcAxZFZ10qHLmg/k9PcY7NP+vje17c1mvbj9FTVuX6/G7rVq7KhVfXOVXYHRLqPeWatkd4NSbWv0eP2T+vRDn9JZFyxVSUlE0VCBwgUFdppHYSiuSEFIIZ9fsWh4xC8cCOJ4YZvaDyW+TGNq09zcTHdcOm+GnQY3ZcJ4TR5fbsN9PmF8mSZOcF6bNMG+Roz+cLfhEeFsw4llxXa7L5w1ydnu0+x2LyuM2SnXI71/Eu/tcFsDmD5gxc7zEjul0vS89CsS9md6E8ZDWnjGXD3wpY/r8fQfVNucWRHS9N+s3rJaDdsbbCXYU82rtKqtRunmOv2tdYO69rZqX19v5t6XO0boG1oF0jbF7x2RMQsA4NhIfAHAMRwwSS7zxM51dEa2vabya8Deze11hra793dq6843tK7TTGts0OrOtCo7k0o70diVts3s19pE2Fr9Lvm/uvuz92rGopmKRAOZZJfpg+MPq9AXssu5FwVjKo0XqigWVTBAxQQxusMkvkx/OfuxczE5ubxY82ZO1YLZU53HyZpUXqIJpSUaX1KsstJMlJYU2XA/JsZGuNstN+zniuJ2Zce5MybZfl/zpk1WaSI64vsmQZiqaVPpZXuGFQyFWRjGrDgaMEmx8MFVaeMhzVsyQx/85G366VOPqqGt0a6wXNFSqaq2atX21Nmq7YptFapsqlKyNaXXe97Q9t6dtuLb3AuzMx2Heh/0Dx4YwZELAOBoSHwBwDFkx7HmP/1makPmTu7O/t3atqtZL2x/UbWttXZFqJTp39XtPHcGx+Z5XU+japvr9OvV/6PlH7pZpeOjigTzbaLADL4TwVhm8G2b1keGVrDyK+zLU8SfbyvBRvrCgSCOF4cnvsqL4po5ZYLmTJ+s2dMmqLysSMVFMeeiMqrCRExFhXEbCed5IpGwrxFjNxLxsPMY0ZSJpc42n2hj6oRSFceoViVGPkK+Alt5aFc+thFRUcTZd8NRxcOR7LHLLtYRCsg37n3Ky/9nzVo0Xbfee6t+ueoXSm+r1ZquNarYWqlke1Lp7pQq2ivtasyp5pTWtT+vTTu3aHf/mzljhaEAAIwqJL4A4ARMhVe/+rRPe9V+oE2v9GzUmpbnVdmZVrK73vbwsoPi9lqt37FeNVtT+lXyt7rjkys1Zf5EhULjND4WValZmn2czya6os5g20xntEu/29Wr/Ha6WCb8KowwVYgY3eFOdbSPzn5r+nxNnlCiaZPLbZSWJGxyJBzK9K+LOvu7iUgkYiMaCRGjOOyxyYljfd5sV5P4mjS+WNOnjLdJL5P8NEkEsyrfSO+fxHs7EmbFx3DIJr9Mg3t3lUizimQkEHT23wLbi870/jJVYSXhmE2O2c855+ep04t158du028qfqtkS52q29J2BUjTDL+6aZVNgFU2V2amP/a8oo59ndo/2OsOGgAAowyJLwA4lqH+tH22ymun3ti9OTOtsa3ONsE1vbsq2qptP5DGnjV29aenG5+yKzROmzfZXhgGC8bZgXVxKKriQGbqhZmCYVebKigYGqCH7eDcVHqZJMJIXzAQxNsNk/iyF46RoL2INFPfJpQVamJ5UTbxFQoWyO8vUCDgcyLgPPcPRQExBiOzHX22T5Kp6Ct3t3dR1O4HpoKGxBcx8hGWu/KsSczbfdM592aS9SF7vCqMhjLJMX/m6815OlN9HVSxc04O+cdpyqwJ+tCDH9afGv6s+rZG1Tnnf9PGwJz3azqSduXHiqZqNbat06Y9W7RrYI9thQAAGF1IfAHAsQwlvnb27tbGzldVu61BybZaO6WxuqtGa7oabaVXQ88aPfv6Kn3+hw9q0XlzlYg6F315BSrzR1QajCrmPIacwXQ4nKnwMgNuU9Vlmu0W+jPVEWYwbqZemLvRphosGmBVR2J0h9vY3k18hf35KoqFVZKIqrwkbqc6FhVGFY5kklwFBXnKy8tEfn6+E+OIMRhmO5qIx0IqdbZzWWlCxUVRJZx9wEx5JfFFjIYwvTNND013KmNh0K9EwGf3TVPhZZvfBzPnXDP10VSIRXw+G6XRTB8wkwgzfyce8umMs+fr377/Rf3fy391zv/1ttKruiWlqo6kqpzxwKqWSlVvSerlro3qGdg5smMXAMARSHwBeM+yTWmVWYkpu2pjbmivOve3qbZzjZ5rT6p2Z51qu2tU3V6hZE+NKnrSSrXX6bE/Paprrr9MJfGIInn5mYF3ODTiA3+COJVhqhMPr1A82E/HiULngjIRUiweVCTqVzjiOyTMa8TYimgsYMNs08JE2Ibt9TVUOXNw3+D4R4ztMDegTD8wWx3mzyT447Ggrr7uUv3sV4+ooi2lZEetqpprlGytUaotaXuBmWSYWexmy5vt6rNLPZqFcQbsmMIujTMw9FrOdMjBQ544n+tjVUgAONlIfAF4z+q1Det1SLIr05t2QG/17dPGXa+rsWWN1nU0qK69RpVNq5TqSqq+p151zsD2uZee0f3/dp8mzCiSP/99ihX4VBqJOheBEdvTaKQH7gQxEuEmviJhnw3TS8cN83E04rfhfp4Y3ZG7/Q7fliZMf8JM5O4HNLgnxnaYdgSZBviZBWjMNElT1WqS9lNnjNfKz96hJxuftAvcVDRVKd1VbxNh1S1Jrd5SoYbNa9T0ZrOd+phZ5XHA+d9gdpxhK8oHMjfeBgYGMjfgNPSJwYF3f0AEAB5H4gvAe5sZaw4oe8vV9PPqOtCpv3dvVHVXo2o76lTfXKW1XSk17Eg7sVbVr9fokd/8QGefvUBF8YCC+e/X+HhCJeGIgnl5tpGuaVw/0gN3ghjJML29TAQD+Qr48+T3jSPGUJxom5ltGwlkwkzfPrT6j+MfMcYjPNR+wFS2FvgyUyNDftu3Mz/vn5VIBHTuJWfo+7/+nqqaalXZklRFc7Wt/kq31KjmjUolm9Ja1/2SOvq6nNFFr9SfqfTaP/R4SNXX4ODB5BfN8QHgpCPxBeC9ayjpNTjUh/aA86d1X4te7H7eDlzTHXWqaatR3faUVnesVmV7jf6y4Sl97DMf0vTxZSp1BseRcXmKO4NityGumRpRHI3aRvUjPnAniBEMUwVkEiImMRLy5SmQf5r8ee+Xb9z7bJjnxNgIs+1MmIt+sy1N2BXxskGFK+GtsPu1c+wy1atmURrTF8z0BzOVX6XxuO3jaT5fMjGhDz14n55+8a9KbkuqemjqY21P2o4ZTEJsfecLat7ZpAN9e+1Yo69/8IjEV3ZYMkjWCwBOBRJfAN67stMOBrRvcJ+a9mzTuva1tldH7fZq1bVW28Frdbfz8Y4G/fLZn+vy6y9UcTyi8DhnQOwP2SXQi6Nxuwy6bZQbyDR2LqS5M+HxcKc0Huvz7hQ4NzniVgcRYyPstK6hOKSya2i72p5eThw6xZEgvBFmvzaN7s1z28IgELSVX3Gf33k94Jz7E/aGl2mcHwzk6aKrztN/PfVz1bbUq6a9Vn/Z9owq2itV01KtmqYauzjOazs3a58OZMYdQ1McD53mmEHqCwBOPhJfAN7TTD+vNwf3aMueLTbplWxN2T5e6R0p1XakVdtZr+qt1fq37zyoOTMnKJp3mp3KGIiEnQvBoF0NyjyG7cqMQysxOgPjMmegPNIDd4I4lXGixBcxtoPtS7yXI9PfK7OIh2lsb5Jg5v1QFIllGt4HIjbxVewPq8w598eCBZoyq1yfevhTqnojrWR3vdLtKdVsrbDJr2RHnTO+aNQbOzZr/+CbhxR8HTLNEQBwSpD4AvCeZSq9dvfv0aZdb6ixs1HJzpSSPSmlu1NKdaRU11mvZzf8Vfd8cqXGlxSqsCBowyS5YomoEpFwpuJhaGBsp0EEMxeK4QL/iA/cCWK0hbsSJDH64/Ck19FW8SQIr4ap6jJV3NkEWNCX/ZxZ5bEoFrXnedP43iTAzBigIP/9Kp9YrDvuvV1PPf+U6rfVqaYlqcrWKlU74wvTBL+upV6b3txsF9BxV5a245Gcvl/kwADg5CPxBeA9a1//Xm3bsU1rWhtV01Gtmu01qu6pVqorrfrORv2m+r900XVnK+Qfp4Tf3NGNKxpO2Du+hQUFSoT9iuSfpqKAqfByBscF+bbaqzAaUzhIpQTx3o7DEyVuBRGVRGM7Dm7DSDaOt90JYixGIhg7uG+Hnf09ErS97Mxqj6bSO2zGAM5535zvg/6AMzaIZCrA8/JVEgrr4qvP1c+f+plquxv1TFulKlsrlG6vsYmwquaktnW3aff+N4+a+BKLOgLASUfiC4BnZe6mZvpnDPRlOtjbfl4DB/SW9qmha50anEFpsrVKa3fWKdVeqfr2tBraGvW9P/xQC2fPthd4ofx829DWvZizzet9vlM/8B66wHQrysyj+TnMHWhbYeZ8zvwc5rl5zYSbUDCvm54kbkNe82iq0UyY5yZBZ8KtUnNfd7/ObeZLHDvc35v7uzO/S/d37f6OzUqfJnL/nvt1uVU1Zh8rjEaGLqpCJ6VZeKHP+Z7+AtuDJjfR5P4cxYF8J5z9xO/L7g+mqiEWzHN+hnF2BbNsuN/3aK8RxBgMcyw1x0n3uO4eb93jqfl87nPzHjVf6x7/D3+/ux8f/jpxZLi/I3OeMcdP9/dljpXmNdNLyz3Huisr2nOa89x8jXtsdb+XPd4Gg9nzpFulNZJhft5FS+fpu7/6rl3dscYZW9R0JFWxtVK1zSmtbq3RutZ1znhkj9xM11sHepUZqfQdOaDJzo0c0EB/77syhgIALyHxBcCzTJKrt7f3kNWTep0/2/t36OX2jXp++zq7+pKp9qrqrFZ9T70aW+r00I++rLIZhXblJnOxYwbT7kWQm3x6Nyoa3Iuy3AqZ3Is083O4YV4zd6DdPiTm4sw85ibEcisx3Iu5wxNrbriJNeLYkfv7Otr2cxOT7gWc+3dyf//uhbX7mrsdzfYb9oX9UFLO7juHNSK3P5s/bCsTI2HngjHifC4athULNgLRbHLraP8/qdgixnq4iZTD33/ucdfd3933cO5x1L0B4b52tGrGkT4+jXTk3og52lRac5zLPb/lTrF1f7+5N3bs9ynwZRNk7nOT+IrmZ75XSSxm/6753iO9f5U6P6NZvXb6/En6yk8eUsUbVapuSSnVWZdJgrWmlG6u05qt6/Sm9mrfgb3ZcUrfQL+d7jiY0wTf9gAbSnxREgYA7xyJLwDe5k4bGMxUgNmk1/aXVddSq5qmSpvsSnbXqqojqcqt1frs//uMisuiKgz6Dkl65Sa73IqrUz1wzm2um5uQcpNU5ufLrVhwL7bMo/vzuXfK3b/jfs69mMsNc7GQG8G8POI4YX7/uc/d35v7uvldu8lI90LPTYIdvl3cfcpNXJ6UxGooppipnnAiGswkvdywP1swYhNfobCz/cN+hUO+zNf5Y0r44tnvc2TiK2z72oz0hSVBDCfM+80kmN33XW4Sy30/mpsfboLa7ekYLMiXryDP/p3DjwFujPSxaTREYNy4Q46N7vHOPeblJs/dY557rHSrvHK/NpvI9wfsdEK3WtkkwdybP+5572TcOBhuFBY4+4+zv5jkV/GEuD7z1Qf03MYKrd5WrWfbq5Rur9UqZwyyqjmlF3petovsqG+/1DuYyW/ldr8XDfABYLhIfAHwLrdRbL/UPzigt7RXr+58LbNy4/ak6rrTSndmVm6s2lStex+8R8F4gaKBApWFYnbw6t55zk165Q6wT2UcrUIrt0rLXJTlDvBz767b14amzJnpc+bRTKUrKyrU5PHlmj55kpYuXKQLzjlX11xxpW654UbdtuxW3Xn7HfrIvffpXz72cX3i/o8Sx4lPfvRj+vhH7s+G+/rHPvwR+ztcfvMtWnHLMq1ccZv93V575VW65MIPaMGcuTbBZC4IzTY028tcINoL76GLOXfqzrD2n2A0k8gy+5FpzDw0RTGT/AqrOOzsM+GA3TdCzr8X9GeqwGKmn50TuYmz7Pd1/r5bZTHSF5YEMZxwq1pzq1vd47qbgHaTNuZYOqG0REuXLNLVV12hm266wb6n3fjgbbfr3jvv0v33fci+/3OPB+/VMMdH9xhpjod33bHSHg9vvPY6eyw876yztXj+Ak2bNFnlxSUqjieUiETtKsnBgkOnoJrtYqeDO58rdb7GTIfMTVrmJivdj0d6/yqJhFRkpsQ7x9RInk+FRVHd86m79czG51TTVafKbdWq6KhRcleDnt2yWi+0rdd+Z5SigcHszTodJc9F8gsA/jEkvgB4lzM+7Ovrs5Ve+5wh5Rs737D9u1JdSVV1Vyi5vU7JtrRWv/yc7v7EHQpH8m3SyzS0DeX7shdDbkVU7jSWd6OHSO40ELciK7cS6PCPzaDf3GU3X1teWKgpkyfq7LPO0B23r9AXv/CgHvnPH+rJJx7XmsZ6bXrjNbVsa67s6eo+45/wrunu7Lr8xfUv6PH//aPuWLYsm8R0p03l9sEZ7v6T/V5Bv61gdHt9RULOxWUoLr8/qEAgIX9oggrCM1QQna38yDTlhcdrXLhIoVCJE85jMOZ8fThTKWYSZ8ECxf35I35hSRDDicOn5rnVmGa6nPt5s3LfZRd9QD/64fe1/vm1am1tfnykjyFesb27Z3p7a9u3X3/1NTXWN+ip//uLHvvJo3rwc5/Xytvv0DlnnK4ZUybbbWBv4jjnt9zKMZMIM9spd0pl7tTVkY5wJHOTocgfVVFBRNF8v4qKo7r1Qzdr9UvP2qb3JvlV01alVdue0+qtlXp1zybbjmGo0Vd2miMAYPhIfAHwrqHpjW85f8zy4Y3ta5Rqr1VtT1rJnpQdeK7eWKHl996kaKjA3p0tDkTsUuWJ+MFKqsPvPLvTH0/1wDm34svte2LucmengQRDNsL+gEoShTp90WLdfutyffsb39RTT/5ZGzduVFtb2xdG+gIHx/bc00/povPPs9OnzHZ1q8BMz5rh7j8m4WVWHC0yDeyDZspQSKFgXIFQmQrCE/T/RWfon4uW6LTxH5BvynXyT7tJ+VOu0mkTL9T7ys+UPzpP/shMBcITnShRJBLL9AoL+TLJr1FwcUkQ/2i4CZLcSi/z3CRXzMeL5s3Xzx77qXZu3/H+kT5OvBeZmwQbX37FJsS+9fA37LntzCVLNbGs3FaFmQpmt6r58P5hI71vmYjEgnZKbFmiSIW+SKbyy5+vWNyvFXfepCfW/0Vr2xqU2lZlk1+pHfV6bku1tuzaqoHBA9mCLxtMcwSAYSPxBcDDBtSnXm3evUlp01S2K63ankyVV217vapeqtQtd9+kcCzTR6QkGFXcF7SDadPvKLffy9EaxJ/qcJNruRUJpqLLTvlwfp4pkybr+muv0zedi4KKVatl7p6P9MUK3rnXXt2oD99ztwL5edmpOiejR42tJMtWj4UVChbKF5koX2KeCkpPV/6MG1QwZ5n881couPiDCi++W5H5dyo6Z6WiM25XpPxqhUsuUjB+ugLRGQqGyxUNJ4aSX6zqSIztOLxpvan0cquIrr38cv3tb3/TSB8bcKi2ltafPfP0X/WNrz+sqy67VPNmzbSJL3PjwN2uo2ZVx3BQYX+mUrsklnDO57FsX7lIoEDL7r1RTzX8ReltKbva47PbVtvG93VN9Xpj5+vaP3BgaGXqg8kvy+1bCgB4R0h8AfCwATV1b1VDc71dubG6p9pWeiVb0lr190rdtvJGxRPOoDngs/2Mwr6QCqPOxY8vT/FIwSEVXrm9tt6t5vYm3H/f/RlmTZmiO1es0CPf+x4XZh7SvG3rlpuvvy7beP5kJFdNNaBZodH0zYlGihSMTpC/cL6CEy9QcNrVCi+6T8GFK5U/9yadNvtq5U2/UoEp1ysxaYVKJ92p0hkfUuHkFYqUXq5gYolC0emKhsvse8Uk0kb6wpIghhO50+PchJc5zl5z2WVqev11jq1jwCsbXtTPfvJj3bH8Vs2dPt1uw9GwoqMJt/G+WRQhFDSLhwQyK+sGQvYGWyQ4Tis+fIue/fsqVbQlVdVSpVRztaq2VdvVH9t6OvRW71476zGb+HKzYP0jO7ICgLGIxBeAsWvAGf/19ztjwF5nLNhnV0My7TFsby/n1db+NtW1Nqi2I610e41S29Na3Vmr1KY63XXXslM+8DV3os2g160Uc6vHzIC4OHRwxcbcxsq5q12ZniBm2mV5YbGuuORS/egHP9QLL7zABZlHvfD8es2fPSszlTY4/ObMpil9WfA0BQNR+eOzFYov1rjxV2jcorvlX3SLAnOvV2LOchVOv0mhSRcqMuUiBcouUcm0G1U45QoVll+nqWW3asKElYo6j/7oJSqILXK+1wTb3N5MnzT98OLO9zdhk3VDDfRH+qKTIE4U7nHW7d9o3nem2fqGDRs4xo5BL730kr773e/qsssuU0lJiT2GmtUfi4IHV4zMPRfbmwzuVMlQMLt6Z6ZCK3bq9z/TOzFQoLs/crsqX65QVWtSTzdXKtlRq+rNlapoT6tp1ybZQc3gUK5rKPHVqwMjOvQCgLGIxBeAsWtgqPeF+pzHfpPtsq8NOEPE7r1dWtuxXuu61qpqW6Wt9Er11Om5v6/Shz5ztxLFp37VJ9ODxEzBMINsM73BVBXYaWyhsMLj8g6ZkuFWkOUO0OdOn6lPf/JfVLVqtbo6OpeP9IUFTr3vfPMbhzTaHlYEoip1HsPRCcovWqJw6QUKTr9R+QvvtlVegbk3qmzJ3Sqff4fCky5RaOJFSky5TlMW3qmyWbcoWnKlxhdepwmly1U8frkKC69RpOgcBYtmKBoqzElwhZWtACPpRYyRcHs1uj0TzU0Kc3NhpI8BGJ6Ojo7lq1at0sfuu08LZs3KnlvdVZHNczfx5TbKd19zK7pPyvH3BGFuGphVdUPhPK38xAqtfr1SVa0prTY9v1qqbeP79Z0vqOdAjwb6ezOrU/e5Cz0y1xEA3ikSXwDGroHMENCufNSXmQZgXtnRt0Mvd79ipwukmmpU11mvyu46rd5crS9/43MqL4kqLzBuxC64zMC6LJHIVnq502yK4zE7GD9zyWJ96d+/qL9teImLsPeYLa+/poWzZ5+UqY6FgahKQkWKFC1UXulFCk25TtH5ZmrjHRo39RqFF9yqKec/oGnnfFzRyVcpWP4BmwSbd+FnNeX0jyhWeoXKYldofOIGm/yaXLRMRcVXKFh6usKxGUf+myS9iDEUbpWXWwV0/tlnqaOt/QsjfQzAyfPiC8/roa98SacvWqhIwG9vRLnnWzfRlbtys3k9d5XIU7r/mSmQBePscbOwKKQHvvwJ1WxJ2h6kVW3VSm+t1KqmKq3tfEl7+94cqnAfVL/Jee0n8QUA7xSJLwBjlq3yMswYcKjv61vaq9d3v6H61jrVddcp2Z5U7Y41zmCyXl975CFNKImp2ExBjA+/efiJIrdJuVtdYB79p52W7dvlDsDNoHzRvLn63ne/o9aWbZUjfcGAkXPfXXeelB5yhYGwYqHxCpeep7yJ18o/e7lii1Yqb/r1ypt0hYpOv1tzrnpI8674kp3uGCy9xCa8ll7zsGZ/4N9VOvlalUcvU1nkck0uvEUz4ys0PpH5ulDxWbZ/mEnU2hUezWIQ4dGxmhpBvJ04pLeXc074+tce4kaDRzU1Na03i8Cce+ZZdgXkQH6BXfTDbTvgVv65Ux3fjf3PTHM0UyqLnZ/B/BxFxVF9/cdfVao5pb9ufU61LVVa3VqjVc21en27mfKYKfdyb/IBAN4ZEl8AxrC+Q1Y46nP+NL3VpMb2BtW01SjdWqXk9gatbknr0ccf1cyZExXz5dv+RImCd+fCyp1K4VZ3mUSYCbfPiLkDbRJe3/7WN2UanI/0BQJG3k9+9EO7wuNw97+iUMBWZoUnXK6CabfKN3+lAvOXKX/SJQpOukKTPvApLbz1B1py8/c1fu5K28R+xrkP6MxlP9KSa3+gSdNu1vj4pSoPXqxp0Rs0N3ybJsVuV7j0egXLL1UsXGT7iGUTX7ZKIjPt0W3STxCjNdwp5WZKekkiruqqChJfHrf5jU16+Gtf15lLltoElzkPuyvpuq0HbB/OoSmRpzKiQZ8di5SZxULy/PZ4PXF6ib7zP99WXYczbtmyStXNNXb6Y9W2Om3eucUZ7/RlKr9GdNwFAGMTiS8AY1hfZrqjbfw6oI7eTj3fvV7VrdW20qu+LaV0V4N+nfyDFiyeZe+s2n4uzkV5SeBdmMrgNqkfqt5xE2GmysB8blL5eH3+s59jSiMO8cSf/mgvxoe7/xVGggoXLVZk4g0KzrpDBYvuUv6cq+WbeK6d2jj76oe09K7/0ukrf6lpi+9XrPQqzbnoczp35S90zor/1qQpyzQheonKgudrWvhaLQqu1IzInYqX3qrIhGsVj05UNJxQNGQSX5km0rbRvUl+Uf1FjPJwbz6YattZM6fr9ddf5Tj8HvHK317WFz73Wc2cOkUFp71fpYUJu0+Yc7M5T78rVV+hzGI2pZG4igMRFQWC9lg6a+l0/bbyd0q11yq9LamalqRWtSaVbluj3fu7nfHOgF3HBwDwzpD4AjCGDWRL/nf27tZL2/9mE17JzpQdNNZ21GnV357VZTdenLkQ9wXtKokmEVUWCZ/ygW00v0Bl0Vi2ebJ5LTBunCaVl+nm669TbW0tF1o4wrPPPK2y0uLhX9gHo4qNv0iRycsVmXW3Chbdo/xZVyo84RxFJl2rBTd+S6d/5A86+77fa8aSTypefKXmXfavOu+eX+mCD/5eUybcromRyzKJr9BVWuS7XTPDd6uo7HbFJt6oovhMW/V1aOIrLhJfxFgId2qbP2+cLjj/XHV2tt8/0u99vLtSyWrdfttyezMs7M+0JnArtE/1/lcytLKz7T2Wl6fScEQlkZBCwQJddOUH9MTzT9rq9apt1VrdWqXKlqQ2dL+s3f17RHN7AHjnSHwBGLtMj6/BTHP75t0ttjdGZUeV6rbXK9Vaq4q2pO765ArnYnyciiIxhQJh5+I8ouKwM9gM5p/6ga0zkDVTGUzSy42l8+frkR98n4QXjqmqcrXiseFXfIX8McUmXaPIpA8qMuMe5S+8V3kzr1B84gUKll+vBTf/h874+BM6+/4/2cRXLHG5FlzxRZ33oV/r/Lv+qGkTVmpS9Eqb+JoSuFzz85ZrZugulZbfocJJN6soMVexSLmdsmOmOpr3Vsz5N03VVyIy8okNgng7EQr6dfnll3JMfo/auXP7+3/x859qyYL59saUne4YOPX7nak6tzfE4lFFnDGJGSvECzKrPsciUa144Da70qOp+Kratlo17Wmtaq3Tazs3S/v3jvToCwDGHBJfAEa1gcGcfhYDB5u69g66jS76tL2/S8n2BlV31dveGOmWlJLb6/SN7zys4tKEwiFftuLKXbEpGhz+HV23Yb3bJ6Q0HrdTJdzX3K8xqzeZFRvvuftOvfIy0xpxfGsb16ispDS7D7n7l6lGMPuvqQ4wjyfaPyOhqIpKL1DhtOUKz75PoVkfV2DqLQqVX6iikqu1+OaHtfi+3+vse/6guWd8VLHohZp70Zd0wYf/qDNv/4UmTr5VM4LXaKLvIk0OXazT85brdN8nNL70Y/JNX6GicLEKQ4VD0xuDmVUdh+JkrEpJEKcyTKLBHKtNn8WVt9/Bcfk97qUXN+jD99yr0sJM78Lc87g7LdYu4OEc3yL+U3/jbIIzZvj8t/5Vya41qmipVNJUfTVXqmJLjZr72uz4p7dvQPudUdCBzAAp87++fnqAAcBRkPgCMHqZFYyc//RrKN/lJr6GXjef2Kt9eqHrRdW0puwd0cbt65RsSesXFT/XvAWzlZf/PjuNwU5d8GWa2Nrk10mY6mgGxm6DZNuoPi/TkNyd2mhWCjPTJ+bMmK5Hf/IIF1Z4Wza+/IqmTZlq9yF3tTHz3PSdcfe1t5P4MlMdE4WnKz7pJlvxFZ79IedxmaITLlG85GJNu/DTWnLHf2vp8p9p6uwPqjB2keae90VdcOevddbyxzRt4m2aHrxEUwrO18zANTqj4E7NC92j4vI7FJp8s4rCRUoEY8o0tB/5RAZBvJMw09BtU3Pn/PCNrz/M8RnWLx77qWY4x9+89/2zXfQg9yaWrQaLmGOr75Tvn2bsMGPeFP30qZ+qui2l1W0VqmmpVtoZ3zR2PK99B/bbsVGfE/2DA9mxkcSijwBwNCS+AIxeQ9MYzeDOJr/cFRzdAZ4z2Nu0p0k17bVKtVWrsafBGSCm9czLFbrylovlKzjNNgk3lTJm2qGZQuD27zB9NYY7MDUXTebRHRi7CQm3QicRj+rqq65QfV2aiyq8bR1t7V84Y+np2USqCbMPu4siuKuCnngfDTv74DTFSq/ITHecfrsKZy5TYtK1ihSdp/IFd+vMZY9o0VXfUfn461WWuFgzl3xSZ934Iy256puaUbxM0/zna3r++VqQv0JL/B/W5MRyxcdfpcKyy1UYijs/T0QkvoixGKYnnUkmm3PEX/78fxyjkbXh+fW6bdktdpzg9v8y+4w57prjcllh7JTvn2GzGI4/X1dee4Ge2ficnm5a7Yxz0qraUqlVTVXatH2r+tRrx0iDBwZysl1mkNQ3IkM2ABjNSHwBGL0GDk18DRyW+Hqzb4/WdW5QZXuNanemnUFhUslNKX3mq59WIJhJGpQlEgqPy1OswGcvdEziwPbbCg1/YOpW3bjTIEx1TshXYMOsEvXAAw+opaXlZyM9iMfYc/ONN9lEl1vpZabRmufZqbr+Eydui0IBxaNFihaeo0jpzXZ1x+JpK1Qy8Q7ntUtVMmOZFl/2kOac81mVFF+m8cUXa8rsu7Tk0q9o9jmf0tTg1ZpacKnm5l2lpXm3a07gHhWX3KJo+QdUnFhynAbQYZEMI0Z7mBsX5phtVvYzq/yN9Hseo0trc8vjn/qXB2zVl6kQN0kw9wbEuzGV20xVNw3vC0P5uv9f71NVc1rPNVepclu10h11amhdq54+s8pjr9yy+D77YAZJvSM3bgOAUYrEF4DRa6jiy5byayjxZQ2ob6BXr+56Q3VNKaW7U3quY7Xquhr02O8e0eRJZQr4M8uRmz4uJvFlk17+QHYlr6JYdNgDUzcR4fb3MneFTUJt8vhy/fKnj3EhhX/Yv3/x37JTHd0qxcP7zZxo/ywyCzhE/IrF5ipaeLkipZereOJyTZj4IRWX3Kyiiddr6sL7NHnmbSpOXKTyxAc0fsINWnD6xzVl1kpNy7tcM3w3aZF/hRb7VmhS6GZFS65XrPhsFYUmZPp5HfHvZpJemUqwkU9uEMSxwq3OXXbjDRyrcUw/eeTHmjZ1sk1+mfN7SezUV3uZSPgjKgw444uCPE2cWKRH/vCfqmyr07MtVUq31KjSib91vaS+wX2Z9g/9Q+Mk+18SXwBwOBJfAEavocSXSXjlJr32O3+69vWorqtR6eZq1XWmVN2d1rN/r9Cll52v8Gnj7F1atyLLTnWMxbJ3+G0iIXxy7tiaaQ8mCWGqckzia+nCBapa9RwXUhiWJx7/UzbZ5SZXD0+AnfDCPpBnV1u0Ky/GFiqWOE/FpdeqvHylxpfdrpKyG1Q+4WaNL3Fei16mstDFzuOVmj3hdk2M36DZ+ddoduB2LQqu1NzQNbYHWDhxgQqjcxVzLsqOTHxR5UWMnTDvq4LT3q8ffP+7HK9xXGYqrDm3uxXdb+fGw3CjJOAcY8MRW2lWEgnp3IvO1JMv/FXVnXWq3LxKla1VSm5NqetAp/qdcdHBtX+Y6ggAR0PiC8CodjDflZnnaOq/evq26+WujUq2J1XfU6vVTavV0L5G93/xo84FftD28jLLkdspjTlVMm7iyyS9TkZzWtvo1m0yHg7psos+oHUN9VxEYdi2bNqs0xcsyCZWzT7m9pB7u1MdC23VY9iuUBaNFCkWm694/GwVFV6k8pIbNL5ouaYULdPU+PWaFr5ekwqu0QzfDZoTuElzfDfaSq+Z/ps1y3+1JkQ+oEB8kcKR6c4FWUmm983Qeyjz82Uqvez7zV3dcRQkNwjiWGHOB2bhkfXPr+WYjRNqqKvXFZdcnKnsfhemOhYGM6vjRgLm5l3cOYYH9NHPf0TpbbW22X11a6UqtlZqQ/fL6hnYmZniONQGgub2AHAkEl8ARq3sao6GvZ1pivh71bK3WemmRtW112h1e6XS2xv1P8/8SpOmT5AvYKYxxlWU51M0GLKNi83qinZlR7OSY8ifXZL8ZFw42b5e+fm68dprtOnVv3MBhZPmI3fffXChhKHVHN2Vxd7WhVPAJL8SCgfyFAqNUyw8WZHQTOf5bBXGLtT46G2aXXi75kZv1dzwcs3xr9DS4Ae1eNwynRO4U0sCd2lq/hWakHeW82+eqdMSs2zfmfKCAkXChy7q4Ca9bJiEWOjUr3pGEMMJ816654MrOWbjbdv40gYtv/mmt3XjYdgR8dvklzm2hsyq0QGfZkwt1y//76d6ti2pmpZKVTRXq2JrWpve2mbHRhpa3ZF6LwA4EokvAKOWGcgNuLcvnfHcwECfdvV36+WdG1TdXqP67SlVN9covblel9xwmZ2CUBaO20b2sZNRcRIO2eSWmSppqshMj7BofkE2CWEqaUysuGWZ3njtdS6gcFL9+c9/VlGiUOECv93/4r7Mo5vIfaf7s91fgwnFAiWK+csUC8+3Ca2yyKWaFLlOkyM3akr4Gk0MXqKy4LnOv7NY0cBcRUPTnOfliocS9iLMJI0zF2Qjn7wgiGOFudHhJopNj0fz/jHJYDdpUVpcotXPreK4jXekqalp/YoVK+w+ZCtwnXGB7R9qqsyD5oabT/HY8KdCBvx5Ko5nWjQUO/tvsXPcDwXzdekNF6n6laSqWpOq2bba3vxbtaVaB/rfyiz6M9CrQVJfAHAEEl8ARq0BHbCPfb1u49Y+tb7VpPrWukx/i84arelq1NceeUilE4ttQiA8rsBWYZ2Mii73wsk+dwa2pZFotiGy+VywwKc7b79DO3q2J0Z6MA7vaW9vv//C801PrZhN5poLK7sv2qTr29mHD60MyyS+zOqQRTb5FfQXKeQrVSR/smJ5s5yY48QMxfKnOP/eREWCk5331HhFQ6U26WX+/rG+N0GMtnAbkftPO00l4Yh9D7nThs1U3WU330LSC/+QrVu3blm5Yrm92WbGA2b/MmMEM/YIFow7KTfeCiNmP80s0lMUjNjkbSD/NJVPK9FXvvdlpVvSWrX5OVV0VKmiqVrbdmy1NwcH7KTH/hEevQHA6EPiC8AolinbN9X7/U7s035t6HhRydaUarrSqupI65kXn9ZZFyxUqOC0zDSrUKbvViJwEqZahQ/2VAq+/zSb+HKnm5k+H3ev/CBJL5xSv/qv/7Y9XuyF0NCjmVprpvCeeB/OSU4NXYhlk1/BhKKRTNViNBBR1BcbiqhtXB8LRu1UYZNMzlSY5fbtcr5vYPirohLEqQyT3Mr2dRy6ceEuEjGxrFQVFRUkvvAPa9q6WR9cebs9Ppr9zF2IxE5FPxk33swYxlTXOsf6sN9MK8/cdPMH8nTmeafrzw1PalVTlSo7q1XZXKnG5nXOCOmABs1gCQBwBBJfAEYvM8WxN9Ply9zH3LRrk+paapXuTKumI6ma1jp95mv/oqJYgUqG+gslEgk7EC30Dz/xZS6cSuNxu2KjqRxwexiZpNeKW25Wc9O29SM9+Ia3tba2fttUfZmLd7MfmsSrmXprLrROvA8flvjKTVzlRCIUseE2wrfJsGBIsWBBNmzPLhJfxBgKNznsJiTMe8a8f0yVzhc+91mSXhg2U5V780032Apwc4wOjBuX6a0YGP7+G8vPs+OOcCigoJlKGY05+3E0u29/6sufUJUzHnqmaZUqm1drVUuNWve12PJ4mtsDwJFIfAEYvUyT1r299umbzp/nO9Yr2ZZWTVuNkq01+kP6cc1ePEVF/gKV5PvtdAC/P3OHtPgkNJ81F0tmIGsGn+4UR1MFdt1VV+q1Vzdy4YR3xZN/ekKlhYnsBbw7XesdhZv4yqlEiPrCtrormyALZ6ZQZiq9QtkLONvPi5UaiTEWprLLJIlNhaR5NK8FC/Lt6rub3niN4zdOis2bN+uqKy+3N8TMfmZ7gPqHv+pj6dCj35evaDhiF+2JFQRsrzoTs+ZO0W9S/6vVmytV1VKhZ9oqVddU7wybDqiPmY4AcAQSXwBGt4FB9ToDuW1vNindVqeKtmol25Na29mojz14v4Khcba6q8gXUHEoavtumTuvRYHhX6Tb3h2xmL1wMtUCpuLm/LPP0ksbXuCiCe+qj97/YVupYvZBO9Xxba7seHhkk1mBYKbh91BCKxb22UiE/TYKI4FMVZcbh/f0IglGjPIw7xU3UWySYOYYPm3SRD391P9x/MZJtWHDBp1z9pm2StxWhxcMv+K8NJyp8o3HIgoNLSZiG+ibMY7p9+Ufp7sfuEtrWtequiWpp5qfVfXWKrXtabEV8gCAQ5H4AjBqDdoY0Jt9e/RC24tKdtRqVVuF6jrr9buqX2vB3BmKhzNTD4siMTtdy1R9mQGiWV1puANPN7lgLpzM86Xz5ytZSV8YvPu2btmkSz9woU3Gmum3ZnXRd7w/Bw4L5z0SGwrTRNmEeV44FJlm9ofHyCc0COLthLkBYpIQwbw8m/iaVFqq7337Wxy/cUpUV1dryeKF8o077R+ryj0sTNWYSaQVFcbtTQ/T86s4HLRhei5GQwWaMX2SfrfqD6pqTem5pmeV6kjZRJjphwoAOBSJLwCjVr+NAXW91anazbVKdtdqdVe1Us1J3fWZ25TIz1dRNKRIJCR/QSb5VegL2buhJ2NVJbdiwL1o+uPvfstFE0ZMTcVqzZw8OdNzLvw2mtsf9h4oDIQPiWxvr1AiG4lgwn6uyG/6fPmGIpCziiRJMGJshEkS5zYd/9QnPs7xG6fU43/8gyaPL8+0RRjm/uuu3hv4/9m78z87z7PA0/MHzHST2KpTm2pRVUle40AS1iadgYaGDAOBNIFOTw/Q9BAaaLobaKBhYAbi3Y5jJ7bjNXESr7KtxYv2rVTavO+x492SLcmSbW22bMequqee99XRkjjgSZ2nHplzXfZbVfKin0r1uc/3PEtjRvWzfGRmT3R94J9XM09PdeZiRwxO/rv/9Bd/EGte3BRjL62JFc8vizVb1lervgA4mvAFFDNx8EnGx8djYmLiqH+Rwtf4xNvx8I4HY3TnWGzYPhabtt4dt25YGD/ykZOnPFg2Dwhvnt9VDZoHXyyllQLVFpkU0XpnxnnnnOtFE8XNvf6GOHnOCfX35cHLFpovktL37czOGdULo2ol1xG3jKWvZx48964VqxE8ntzPkfGg+b1enZ908Ps3Bdl0qHi1Hayr69CbFM3v+YHJn9udaWVkT2/833/11/Hqzlc+UfrPL//0nX/++dGfLsU5eCB9enOh+bO3+X3c24qjGLrrG0o/9tEPx/WLr6vOP01z0srnV8f92x+I/e+8Uc9TBw4PWgcm3qnHKzshgTYkfAHFHBm+vudfjE9Un/a+vSfu2rIh1k4OdGu2jsamrffGn57+ZzGztwXXhU++gErbYZpX3jdv/Wqe61Xf4NgZf/QHfyh6ccy44ZvXxpyh4ep7OB2m3Lzt8dD3cE9ntUIgvShKTzMYpH/f3L47swWXP3g8OZ/0PdrcZv7dsbZ5Zlfz183Y1fx1upQk/ewe6h+IP/sTK72YXp/73OeqreLdHY3qJsbmRQvN8DWrb+q34qbwW/0c7+uOP/27/xqjW9bG0i3Lq/O+1r+wKXa/uas6KuLIQWs86hsfx4UvoA0JX8Axp7nya3xyRHt+7+bYsGV9rNsxFmt2bIjFDy6Ln/7ET0TXjA9OeXBsrvA68p8dubIgvSv7iz/38/HMU0974cQx5abrrq+231ZxNm19bK5QPPgCq7dR32TXjAbNcND8fk8RrHTY8Hj+oecfCl/paYbe9HX6vm6+WVFdbjL5nDgyO848/YzY/dquHyr955X28tRTT8Unf+EXq8t2UoBN5zI2v2/T93NzleJUnvr2yO5qFvrxn/1YzL9rXqzcvCbGtq6P0edHY8uuLfH25F8Hh6l6tqqmKuELaE/CF3BMObTdcdI7E2/GAzsfjY0vb6oObR3dsSn+/uLTY7i3u3oXdaqDYzMapBdJ6UVW84VUc2tYOqtjyaLFohfHpOWLl8TP/IuPVy+A0vfx8f/sn9XR6+DKxfTPmmcclY4YHs8P+jTfjDhyW28VwxqHf92MZM0tvR877bT46lVX+9lNMcuWLI2TTjix2u7YvGCh+aZaK/5cpFus+2Z01qt++2bE3170N7HhpQ2x6oU1sXrzaDy67dHYfWBvvdhrvJ6tmuFr4l2X2gP80yZ8Aces195+OdZvvzvW7Vgfd+28O+58fEX8zC//TMz8wHGHbm+cypNeOA11Hz7fq3lGzPBAf7Xa6+yzzvDCiWPaU48/Eb/3H3538sVVbwz19x164Z9WgL3b1sbm6pkjt4l5PMfic2TIerd42zzPK33dPM8ubf/67Gd+PR598AE/uynu3LPPqc6YS9+f6Wdy8422lvz5aHTHzOPrQ+9nHP/P42d/+ROx4tFVsfr50Vj14srYtPmueGn/1njn4HKv+k3F8aPeXARoJ8IXcEz47mEs/frpXd+Odds2xqqto3HPq/fGJTdfGsNzBmKw0VkNfVMdHAc7u6rwlQJY84VTukXpA//L/1y9eHrt1Z2fKD04w3tx9ZVXxY9+7CPV92868Ltx3AcPfU+nF1rNVTFHRt7SYcPjea/Pkd+zzfO90qrfnhmN6qKHdJbST//ET8Y3rvm64MUx49VXXx341C//SvVzubmyPAWwtAJsqn8m+jq76zfuOo6vznQcHOqLr9x4WWx86a5YvX1NFcCeeO3bsT/eqmeqA83Z6sB0j3cAxwThCyhnfOLQoavVMvyD8evAxHi8+fZbcff2e6ttjqu3rY1Vz62J3/3D/6O6ySjd1tXfNfUX7gNVQOuM4Z7DB9ynFQM/8qFTY82K5V5A8b7y7NPPxLnnnBU//mMfi96ermp1QTr36Mib7poH3gtfnvfLc2T0aq78qld3dVfbyFLwSitr0vd/6T+D8N3WrhmND5104lHnerXq5+9Q3+Tv0zg+RiZnmJ5GR/yfv/9bsebJ0RjdMTkzvbg67t16X7z29p6D81Zz1jpw+BcAbUT4AoqZODB++Lah8cNL8L9z4J3Ys29vjG5dH3e/fFese2VjzL3nlvixHzs5eo//YHR1Naorwqc6NKYVX7PSi6fOrkMvqtLweM4Zp3sBxfvWU08+ERddeEF86pOfjI+cemr1gqu5wqC5WqZV58x4PLmf5pbH9H3bfIPipOHh+M1/8+tx1WWXC14c8876/N+3/Ebd6lbHzuNjZGZ3tQo+nff14Y+dFnPX3Rwrt66qnrHnNsT213ccOuermrsmDkzOW+8UmfkAShK+gHKOiF7NK7ffGT8Qb8V34tGXvxVrd2yMDa9sjLu3bYr/5/y/iv6e7hjqHIiBRm/M7J36gd3NFTD1i6r0+/VUtzi+8MILz5celGGqdu7c+YmxsbFqNcxvfuY34qd+7MfjlBNOjOG+gWqbTPXCafJJ59mlJ0Xf5tceT+kn3YbXm7aj9w/EaSefEh//Fz8d/+G3fyeuvPyKuOeuu8Uu3jfSTPHz/+rnqi2P1Rb0zsNR991u3X1PQbgjrX6f/H9mHjzvLp1Z2t8bf3Xe/4h12+6KlS+tibUvjsVDL94/OVO9cXDYao5ewhfQfoQvoJwjtjk2w1e6c+j1eDMe2vpIjG5dNznAbYi1T6+OT//2r0R3x4wY6uyrbjPq7Zn6u6bNLV9p6JzV21dtobz+2uu8oOKfpBc3b3nwno2bYv7Nt1QrZdLKxvScffrn3/U58+//zuMp9nz5ixfGNVddHYvuuDMefvCh2PbS1mtK/xmCH9R137y2uoSkeQNpM3R9962l7/UZ6uqujn7o6jy+Xrk+oyt6Oo6LT/37X4rFjy6pwtfolrVxz5a7YveB3dWbimnGat7uCNBuhC+gnImjv04Lvw5MDmQvv/1K3PPSvTG2fUNs2L4xbhq9IU748FC1CmBWY2Z1o2P6eqrh68gbw9LWyc9+5jdELwCg5X7r3332UOR6t/j1/2vFeme93bG747gY6Z2cizq6q/CVZqWvL76muhRo1QtrYv3mDbHtre3x5oG36vDlbHugTQlfQDnvEr7emfzr2T3PxsYXN8X6HZti07ZN8TcX/HU0uj8QQzNnVrc5NrdptWKrYzN+nTgyO1Ysc6A9ANB6q1etiNNOPunQOYtT2erYN6M+766vq6O63XGwo77lsav7g/G35/xlrNmyNpY/v6q63fGpvc/G25N/CV9AOxO+gHIOLrs/8uu3JoezR1/5Vqzbuj7G0vPM2vjFX//X0eg8rhryqpsYW3Qwd/O2sBTRfv8//l+iFwCQzR9+7veq8xSbh9w3b9w9cvXXe1ux3l3NRP3djWr118CM+rKejhk/FL/66V+I5U8ujxUvrK6ee7c/EPvj8Iqv8Yl/eDQD+KdI+AKKOip8TX7a9c6euH/7fTH28tpY//L6mL9+Xpx02gn1Cq+ORjXkpWGvPox+6vEr3XiX3oFdt3ZM+AIAshlbuyZOOWFOteqrGbm+e8XXe3lzLx3PUP33jRkHD8tPl/VMzjSN4+OHPzQnblh9Xax9aX2seHE0Rjevj90Tu6I63X7i6MX2AO1C+AKOGenA1Zf2bY1NL22M0R1rYsOODXHm5WdE30DP5GDXU632qt7d7OlpWfhKw+ef/PF/Fr0AgOz+yx//0fdd5fVeV7RX4WtGRwx01tsm+3t6Y2ZXd3X79ayZXfH/XvS3sX7LxlixdW2semEstr6+JdJhEsIX0K6EL+CY0Lxp6NlXnol1W9bF6CurY3TLmvjsf/630WjMiP6OnuoA15mdM+pVX129U45eadg8eWQk1qxeKXwBANmlmeOEWbOqc0ub54w2tz2miPVetjumrY5ppddwbx3Kuie/7u2e/P26u6LnuB+Kf/effjPWPD0Wy15cE6teGI1ndj45OWl9p6peB1zqCLQh4QsoaDzSOavVWauTw9ib4/vioZ0PV7c5rtu2IRY/sDR+5CdPq86tGO6sl/X39tTBKv36vZzhlf7btJ2xOgvjiOCVPnfN6Ijf/a3fFr0AgGmTZo+eRme1PbE5q6QQVkWwnqmfY/pTP/UTseSexbHs+aWxctvquH/bQ/Fmc8XX+DuFZz+A6Sd8AQXV4atadj/54fUDe+KebffH2m3rq/B11fwrY/Yps6rl/EeGrzQYpoNc/7HBr/nuafq6uv3oYPCqDrSf/D1GBmfFgltuFb4AgGkz/+ZbqhlksKeOXc1ZJb1R14rwNTw8K664+bJYuWVFrHxpTWzccm/s/s7eQ7MXQLsRvoByJsar6FWfNzEer729M8ZevCtWb1sfG7ZvjP9x1p/HzIFGzDx+RgwdXOE1s7ezOuh+oPGPD4YpdB15VXgaLtM/S+Gr67jj4pM//69j16uvDZQegAGA9pFmjzSD9HYePufrvd7o+F6ers6O+PPT/zTWbR2rwtfYcxti676XY9whX0CbEr6Aco4avsZj+/5tsXrzuhh9eWN1zte//93fiJ7uGdVtjil8pXCVwlc6wyId7PqPDX7N0JXCV/PrI//dBed/wWovAGDaffELF0R3R/Om6vqQ+pH+/kNnfk3lSW8QfuZ3Ph1rX1gbKzavjNHnxuL53VvinbTOflz5AtqP8AWUc8TsdWDi7Xhu73Ox8sX1se6Vu2PpI4viZ3/2pyaHwuOq1V3pVsfexvHR192oBrp0g9F7HQCbWxub53ylAfNjp50Wjz3yqPAFAEy7xx/7Vnz0wz986M245vEMrQhf6fD7n/hffzTuuP/2WPXCmlj9/Gg88eqT8c7Bc74A2o3wBZRzxPD1nfH98a3XnohVaZvjzrvj2iVfiw+dOFKfd9HVU52D0dfVEQM9B7cEdPf8o4PfkbcjNYfKatXY5PO53/kd0QsAKOb3f+9z0Tjug9W80jyGIX2e8nbHjq448ZSR+NqdX42xretj9ebReODlB+PNeMsRX0BbEr6Aopor7vcf2FsNZat2bIx12zbGOZf9XXVNd33DUW8M9M6sotdQT+fBqPXeVnw1w1da5dUMYHMGB2PutdcKXwBAMXNvvClm9c08dBZpmlVaEb5mNSZ/j4GeOOPSz8f6bRti1YurY+OLm+L1iTeEL6AtCV9AMSl6jVfnrI5XNzreu/W+WL1zU6zZMhb//fN/FIONjmq5fl/XzJjZ1R0DnR0xa/JJZ3691/DV3Op45I2OaZvjs088IXwBAMU8+cS340d/5IcPvVE33Nd3cKX71MLXUKMnGh0fjD/6mz+M0S1rY/mWVbFu84bYF29EdZ02QJsRvoBiJpofJg5UB9uvfWl9jL68ITa+sCl+/bf+zaFtie9209F7vf0ovYs61N0Ts7q6o/v446ttk3/4ud8XvQCA4v749/8gOj94/KE36Zqrv6YWvrqit7MR//u//ZVY++z6WP7CihjbvDZefnN74ckPoAzhCygmXas9caD+6sU3tlRbHNdsXx/LHl4Wn/iFnz4UvaZyxXfz/0/hK30e6h+Ia666WvgCAIpLM8ms3r5D55BOZeY5tNWxsyu6O2bExz/5iVj8yLJYuWVVFb5e2r+19OgHUITwBRRTL/ZKh02Mx/N7not12zbE2h0b45a1t8bJHz5xyuGr+e5p88yM9PUPn/qheOJbjwtfAEBxjz/yaHzk1NMOzTwtWfHV1R1dM46PUz96Stw4enOseWks1mwejed2P1+96QjQboQvoJhm+JqId+KJnU/E2upGx7vimtu/FsMj/VNe7XXkAbGzenurczM+/SufEr0AgGPGZ37t04cu4WlF+Eqr3FNImzXcH5fNuzzWvrQuVjy3Kh7f8XiMO+QLaEPCF1BMCl/j7xyowtej2x6p3pFcv2NTXPC182NwZndLtjk2h8j09DQ64szTzxC+AIBjxrlnnhV93fXN01ONXs35J10CNLOvK8654qxqRf2y51bGw9serS4UAmg3whdQTLXia2IiDqTwteOxWLt9LMa2b4i/OvsvWnLGxZHRKx1sPzzQH0sWLRa+AIBjxp233xEjgwPVyvQjV6v/oE862H6oe2b0dTfiL8/87zG2dUMsfWFVPLz9kerNRoB2I3wBxTRPmXgnvhOP7fxWrNuxvlqO/7k/+93oO37q13mn4NUcILuOOy5+8kc/Fs889bTwBQAcM779+BPxEx/7aL09sbd3yvPPzK50qU9v9DaOj//43347Vr0wGss2r44Htz8c3xnfX3T2AyhB+AKKaa742v/OG/HwjodjzfaxWL15ND77uc9E7wePa9mKr+rdz46O+NQv/W+iFwBwzPmVX/6lamZpxXbHmb3dMdjRHT2Ts9RnfudXY+nTK2LJ5lVx30sPxL79u0qPfwDTTvgCCqrPmXjjzb3VbY5j20Zj5VNj8Wuf/uXo6jx+6mdczOiIoZkzq+jV29kVf/nnfyF8AQDHnL/9m7+ubmJMq7VacsxDZ0c0ujriVz/1S7H4iZWxcsuyGH1xXbz+9huFZz+A6Sd8AcVMTNQ3C72+f0+s2b4+1m5dE0sfXx2/+Mmfi87G1Fd8DXYe/NzTMzlIdselF18ifAEAx5zLL7s0Bnp7qkPuW3LUQ1cjOjpnxC/+wr+KOx5bFis2LxW+gLYlfAEF1Su+9r+1L1ZvWxfrtq+NOx9ZHh//lz8ZPY2pr/hK13mnQ/JT+BoZnBUrli0XvgCAY87KFctiztCsloavRmNGfPwnfywWPnDnofD1xnec8QW0H+ELKOjo8LVhx7pYeN+i+OhHTouZXR0tWfHVPC/jI6d9ONLhsaUHWwCA7/bM00/GD596Sku2OlZv/nV3RmdnR3z0w6fGLXcviFUHtzoKX0A7Er6AYtJWx4mJeqtjCl/rXx6LuRvmx6mnnBD93VM/3HWgUa/2SteD/8zH/2W8smPnp0oPtgAA323P7td+6Gc+/tMtCV/VaveuRnR3d8ZpJ82JG8bmxpqXVlTha5+tjkAbEr6AYppnfO17Y3eMvrwhNmwfi+tG58bJJ82OgZ4WHO7aqH+PdLj9Z37t01Z7AQDHrM9+5teju2PG1MNXd1d1uH1vT1ecesJIXLPimzG6dWWs2TImfAFtSfgCCqq3OqbwNbZzU6zftja+sfy6OPXE2dU7la0IX2mrY1rx9af/5b8KXwDAMevP/+S/RefxU7/cp7+nO/obM6rwddqckbjyzqti7UvCF9C+hC+gmOaKrz37Xov1OzbF2Etr4upF18QpJ4xUA1srwtes3t5ofOADcd5ZZwtfAMAx67yzzoyuGVO/3Ke6HbLj+EPh69IFX6nC1+rNa+N1Z3wBbUj4Agoar/7e+/be2PDS+li7cywum3d5jMwerJboT3XwS4fapxVfvZ2NuOKyy4UvAOCY9Y2vfq0KX+mMrvT84DNQT3VkxMzOGXHiCcNx1fyrYuVLa2LdlnWx7zv7Sg9/ANNO+AIKyh++mkv+r/3GN4UvAOCYNff6G+rVWhnDV5q5ANqN8AUUlDd8NYfG4YH+uOO224UvAOCYtWhyVpkzNKvl4evKeVcKX0BbE76AgvKGr2b8OmF4KNauGRW+AIBj1ujKVXHS7BHhC6DFhC+goLzhK53vlbY7njxndtxz193CFwBwzLp7w8as4Wts85jwBbQl4QsoaHrC1yknzIn7771P+AIAjlmPPvhQtvC14sXVVfja89ae0sMfwLQTvoCCpid8feikE+OB++4XvgCAY9bTT3w7Tj3xBOELoMWEL6Cg/Gd8CV8AwPvBC888G6edfJLwBdBiwhdQ0PcPX/2NGS1b8ZWGSFsdAYBj2VPffrIl4Sv9v4O99Zt/J8wZiavmXxkrXloZa19YG3vfer308Acw7YQvoKDp2eoofAEAxzrhCyAP4QsoSPgCAEiEL4A8hC+gIOELACARvgDyEL6Ago4OX6M71gpfAEBbEr4A8hC+gIIOh6/1L66rwtdXbr1M+AIA2o7wBZCH8AUUVIevdLW28AUAtDPhCyAP4QsoSPgCAEiEL4A8hC+goMNbHddtGYs1L48eOuOrvzFD+AIA2kbLwld3T8zq7ozurhlxypzhuHjBFbF6y+pYMzlrpZkLoN0IX0BBwhcAQCJ8AeQhfAEFCV8AAInwBZCH8AUUJHwBACTCF0AewhdQkPAFAJAIXwB5CF9AQcIXAEAifAHkIXwBBQlfAACJ8AWQh/AFFCR8AQAkwhdAHsIXUNDh8LX+xfWxZvtYfOXWy2L2nFkx0PjBBz7hCwB4v2lV+Bro7o3+7kbM7JwRJ54wHFfOuzKWb1kVa19YK3wBbUn4AgoSvgAAklaFr/6unqPC1xW3XiF8AW1N+AIKevfwlbY6Cl8AQDsRvgDyEL6AgoQvAIBE+ALIQ/gCipmYOCB8AQD8T3nD17LNK6vwteetPaXHP4BpJ3wBxRwZvtZtWSd8AQBtK3f4Gn1+VPgC2pLwBRTzD4Wv/o6G8AUAtA3hCyAP4QsoRvgCAKi1Onz1No4XvgBC+AKKGj8qfK3etjYuveUrwhcA0HZaFb76untisKsR3V0z4pTZs+PiBVfEyhdWxurN6xxuD7Ql4QsoSPgCAEiEL4A8hC+gIOELACARvgDyEL6AgoQvAIBE+ALIQ/gCChK+AAAS4QsgD+ELKEj4AgBIhC+APIQvoCDhCwAgEb4A8hC+gIKELwCARPgCyEP4AgoSvgAAklaFr/6uOnz1dHfEaXNG4tL5V8Sq51fG6udHY++be0oPfwDTTvgCChK+AACSVoevtOLrQ7OHhS+g7QlfQEHCFwBAMh3ha99btjoC7Uf4AgoSvgAAklzh65J5l8fK51YIX0DbEr6AgoQvAIBE+ALIQ/gCChK+AACSHOHr1JEh4Qtoe8IXUJDwBQCQCF8AeQhfQEHCFwBA0urw1dV5fBW+Lr71MuELaGvCF1DMxMSBo8LXqq2jccnNl8bwyEAMNKYy8AlfAMD7S6vC18yu7pjV3VmFr5OGh+PL8y+PFc+viJXPr61mLoB2I3wBxQhfAAA14QsgD+ELKEb4AgCoCV8AeQhfQDHCFwBATfgCyEP4AooRvgAAasIXQB7CF1CM8AUAUBO+APIQvoBihC8AgJrwBZCH8AUUI3wBANSEL4A8hC+gGOELAKDWqvDV19kdQz1d0d01I04ZGo5L5l0eK55dHiufHY19bwlfQPsRvoBihC8AgJrwBZCH8AUUI3wBANSEL4A8hC+gGOELAKAmfAHkIXwBxQhfAAA14QsgD+ELKEb4AgCoCV8AeQhfQDHCFwBATfgCyEP4AooRvgAAasIXQB7CF1DQ+FHha/W2tXHpzZfFyMiQ8AUAtJVWha/+rp4Y7O2KmZ0z4oQ5I3H5LZfHkueXx+pnRquZC6DdCF9AQcIXAECSI3zNmT0sfAFtT/gCChr/3q2Oc78ifAEAbaeVWx2FL4DDhC+goMPha2zzmPAFALStVoavgZ5O4QvgIOELKEj4AgBIcoWvy26+7FD42vPWntLDH8C0E76AgurwlYawFL5WvrSmCl/Dw7OELwCgreQMX4ufWxarnl4jfAFtSfgCChK+AAAS4QsgD+ELKEj4AgBIWh2+ehvHC18AIXwBRX1v+Lr4pkuFLwCg7bQqfPV39cRgVyN6ujvilKHhuPjWy2LFs8tj+dOr4/W395Ue/gCmnfAFFCR8AQAkwhdAHsIXUJDwBQCQCF8AeQhfQEHCFwBAInwB5CF8AQUJXwAAifAFkIfwBRQkfAEAJMIXQB7CF1CQ8AUAkAhfAHkIX0BBwhcAQCJ8AeQhfAEFHQ5fa19Yezh8jQzEQGeH8AUAtI284Wul8AW0LeELKEj4AgBIhC+APIQvoCDhCwAgEb4A8hC+gIKELwCAJFf4+vItX4nlz6yIZU+tEr6AtiR8AQUJXwAAyXSEr31v7S09/AFMO+ELKEj4AgBIhC+APIQvoCDhCwAgEb4A8hC+gIKELwCAJHf4WvrkSuELaEvCF1DQu4SvuZfU4asxlYFP+AIA3l+EL4A8hC+gIOELACARvgDyEL6AgoQvAIBE+ALIQ/gCChK+AAAS4QsgD+ELKEj4AgBIhC+APIQvoCDhCwAgEb4A8hC+gIKELwCARPgCyEP4AgoSvgAAEuELIA/hCyioDl+79++N0efGYvmWNfHlGy+J4eFZMdDZIXwBAG0jZ/ha9vRS4QtoW8IXUJDwBQCQCF8AeQhfQEHCFwBAInwB5CF8AQUJXwAAifAFkIfwBRQkfAEAJMIXQB7CF1CQ8AUAkAhfAHkIX0BBwhcAQCJ8AeQhfAEFCV8AAInwBZCH8AUUVIevPW/tiTXPrYnlW1bFxXMvieGRgejvaAhfAEDbaFX46us+HL5OHBqKC2+5NJY+szSWPLUy9r4tfAHtR/gCChK+AAAS4QsgD+ELKEj4AgBIhC+APIQvoCDhCwAgEb4A8hC+gIKELwCARPgCyEP4AgoSvgAAEuELIA/hCyhI+AIASIQvgDyEL6Ag4QsAIBG+APIQvoBiJiYOHA5fz66NZZtXx5dvvCSGh2fFQOMHH/iELwDg/abV4au3pxEnDQ9X4WvJU8ti8ZMrhC+gLQlfQDHCFwBATfgCyEP4AooRvgAAasIXQB7CF1CM8AUAUBO+APIQvoBihC8AgJrwBZCH8AUUI3wBANSEL4A8hC+gGOELAKAmfAHkIXwBxQhfAAA14QsgD+ELKGj8cPh6bk0s27xS+AIA2lKrw1dPd0ecODR0KHwteWql8AW0JeELKEj4AgBIcoWvL958iRVfQFsTvoCChC8AgCRn+Fr85FLhC2hbwhdQkPAFAJBMR/hKMxdAuxG+gIKELwCARPgCyEP4AgoSvgAAktzha9G3lwtfQFsSvoCChC8AgET4AshD+AIKEr4AAJLpCF+739xdevgDmHbCF1BQHb7SELb6mdFY+sKq+NINFwtfAEDbyRG+ThoejgtvufRQ+HKrI9COhC+gIOELACARvgDyEL6AgoQvAIBE+ALIQ/gCChK+AAAS4QsgD+ELKEj4AgBIhC+APIQvoCDhCwAgEb4A8hC+gIKELwCARPgCyEP4AgoSvgAAEuELIA/hCyioDl+79u+KVc+siqUvrIgv33hJDI8MxEBnh/AFALSNVoWv/q6e6O9uRF9XR8yZPRyXTM5Wtz+1JJY+LnwB7Un4AgoSvgAAEuELIA/hCyhI+AIASIQvgDyEL6Ag4QsAIBG+APIQvoCChC8AgCRn+LrtycWx5FvLYs9be0oPfwDTTvgCChK+AAAS4QsgD+ELKEj4AgBIhC+APIQvoCDhCwAgyRG+Zo8MxcU3XCx8AW1N+AIKOjp8LXl+eXxpcjgTvgCAdpMrfF1yw1eq8LX08ZWx963XSw9/ANNO+AIKEr4AABLhCyAP4QsoSPgCAEiEL4A8hC+gIOELACARvgDyEL6AgoQvAIBE+ALIQ/gCChK+AAAS4QsgD+ELKEj4AgBIhC+APIQvoCDhCwAgEb4A8hC+gIKELwCApFXhq6+7Jwa7GtHT3REnDg3FBXMvjjseXxR3PrEs9r69t/TwBzDthC+gIOELACARvgDyEL6AgoQvAIBE+ALIQ/gCChK+AAAS4QsgD+ELKEj4AgBIhC+APIQvoCDhCwAgEb4A8hC+gIKELwCARPgCyEP4AgoSvgAAEuELIA/hCyhmYuJAHb7e2BMrn1odi59bERdd/+UYHp4lfAEAbaVV4au/u1HFr/6unpg9MhBfuvGiWPjE0ljyrVWx5+3XSo9/ANNO+AKKEb4AAGrCF0AewhdQjPAFAFATvgDyEL6AYoQvAICa8AWQh/AFFCN8AQDUhC+APIQvoBjhCwCgJnwB5CF8AcUIXwAANeELIA/hCyhG+AIAqAlfAHkIX0BB40eFr0XPLhe+AIC21Krw1dfdiMHOnujp6o4ThwfiCzddGHc8vjTu+NbK2P3Wq6WHP4BpJ3wBBQlfAACJ8AWQh/AFFCR8AQAkwhdAHsIXUJDwBQCQCF8AeQhfQEHCFwBAInwB5CF8AQUJXwAAifAFkIfwBRQkfAEAJMIXQB7CF1CQ8AUAkAhfAHkIX0AxExMHqvC1e//eWPHkqrjzmWVx4XVfiqGhQeELAGgrrQpf/UeEr5OHBuKLKXw9tiTufGxl7HlT+ALaj/AFFCN8AQDUhC+APIQvoBjhCwCgJnwB5CF8AcUIXwAANeELIA/hCyhG+AIAqAlfAHkIX0AxwhcAQE34AshD+AKKEb4AAGrCF0AewhdQjPAFAFATvgDyEL6AYqrwNRGx7429sfjZ1bHs6eXxhZu+HHOGZkVfl/AFALSPVoWvvoPhq7e7J04cHpicrS6M2x5bHLc/tiJ2vyV8Ae1H+AKK+X7ha/asQeELAGgrwhdAHsIXUMy7ha/zb/yS8AUAtB3hCyAP4Qso5sjwteiZVbH0qWXCFwDQloQvgDyEL6CYZvja+/oe4QsAaGvCF0AewhdQjPAFAFATvgDyEL6AgsYPha87n14pfAEAbUv4AshD+AIKOjp8LXlyqfAFALQl4QsgD+ELKKba6jgeseuNPbH82yvjzmeWxYXXfSmGhgZjoFP4AgDaR6vCV39XT/R3N6pnZHhWfOnai2P+43fEokeXxe79e0uPfwDTTvgCihG+AABqwhdAHsIXUIzwBQBQE74A8hC+gGKELwCAmvAFkIfwBRQjfAEA1IQvgDyEL6AY4QsAoCZ8AeQhfAHFCF8AADXhCyAP4QsoRvgCAKgJXwB5CF9AQeOHwteKJ1cJXwBA28oRvmaPDFXha963bo87H1kae97cV3r4A5h2whdQkPAFAJAIXwB5CF9AQcIXAEAifAHkIXwBBY0fdcbXHU8vFb4AgLYkfAHkIXwBBX1v+PritRcJXwBA2xG+APIQvoCCvn/4GuxqCF8AQNsQvgDyEL6Agurw9drru2PZEyuELwCgbQlfAHkIX0BBR4ev259aInwBAG1J+ALIQ/gCCvr+K76c8QUAtJNWh6++ro5D4evWx26LOx5eErv37y09/AFMO+ELKEj4AgBIhC+APIQvoCDhCwAgEb4A8hC+gIKELwCARPgCyEP4AgoSvgAAEuELIA/hCyhI+AIASIQvgDyEL6Ag4QsAIBG+APIQvoCChC8AgET4AshD+AIKOjp83f7UkrjgmxcKXwBA22l1+EpPCl8XffPLh8LXnjf3lR7+AKad8AUUJHwBACTCF0AewhdQkPAFAJAIXwB5CF9AQcIXAEAifAHkIXwBBQlfAACJ8AWQh/AFFCR8AQAkwhdAHsIXUJDwBQCQCF8AeQhfQEHCFwBAInwB5CF8AcVMTBw4FL6WPr48bntycXzx2ouELwCg7bQyfA12NaK3pxEnzxqKL1z/5Vjw8MK47ZElsWf/3tLjH8C0E76AYoQvAICa8AWQh/AFFCN8AQDUhC+APIQvoBjhCwCgJnwB5CF8AcUIXwAANeELIA/hCyhG+AIAqAlfAHkIX0AxwhcAQE34AshD+AKKEb4AAGrCF0AewhdQ0Hj196439sSiR5fE7U8tiS9844sxPDwr+hszhC8AoG20MnzN6u6M7q4ZcerwSJx37UVx26O3x8KHF8feN/eVHv4App3wBRQkfAEAJMIXQB7CF1CQ8AUAkAhfAHkIX0BBwhcAQJIjfJ0yNFyFr4WP3FaFL2d8Ae1I+AIKEr4AAJJWha++zm7hC+AIwhdQkPAFAJAIXwB5CF9AQcIXAECSK3yd+80Lq/C14KFFwhfQloQvoCDhCwAgaWX4GuxqCF8ABwlfQEF1+No9OYQtfmyp8AUAtK2WHW7f3YjBzp7o6eqOk2b1x/nXfTHmP3h7LHxoWex+47XSwx/AtBO+gIKELwCARPgCyEP4Ago6vNVR+AIA2pnwBZCH8AUUJHwBACTCF0AewhdQ0Pc/3H6gs0P4AgDahvAFkIfwBRQkfAEAJMIXQB7CF1DQ94av879+gfAFALQd4QsgD+ELKEj4AgBIhC+APIQvoCBbHQEAkpaFr66eGOxqRG9PI04anBXnXXtRzHtwfix4aFHsnpy5ANqN8AUUJHwBACTCF0AewhdQkPAFAJAIXwB5CF9AQcIXAEAifAHkIXwBBQlfAACJ8AWQh/AFFCR8AQAkwhdAHsIXUJDwBQCQCF8AeQhfQEHCFwBAInwB5CF8AcVMHAxfu/fvjcWPLY07vr04zv/6BTEyMhT9jRnCFwDQNloZvvq7G9UzMjwrvvj1i2Luw/PjtgcXVW82ArQb4Qso5rvD1+1PLDoUvqz4AgDaifAFkIfwBRQjfAEA1IQvgDyEL6CYdwtf513zBeELAGg7whdAHsIXUMzEEYfbC18AQDsTvgDyEL6AYia+61bH2x6/U/gCANqS8AWQh/AFFCN8AQDUhC+APIQvoBjhCwCgJnwB5CF8AQUdPtz+zkcWx8Jv17c6Dk8OacIXANBOWhm+Brsa0dPdEScNzorzrr0o5j04PxY8tCh2C19AGxK+gIKELwCARPgCyEP4AgoSvgAAEuELIA/hCyhI+AIASIQvgDyEL6Ag4QsAIBG+APIQvoCChC8AgET4AshD+AIKEr4AABLhCyAP4QsoSPgCAEiEL4A8hC+gmInqw4HYtf+1uOPhZbHwscVx3tfPjZHZfdHfMbXoJXwBAO8nrQxfAz2Tv0dXR8weGYrzv3pBzH14fiy4/47YJXwBbUj4AooRvgAAasIXQB7CF1CM8AUAUBO+APIQvoBihC8AgJrwBZCH8AUUI3wBANSEL4A8hC+gGOELAKAmfAHkIXwBxQhfAAA14QsgD+ELKEb4AgCoCV8AeQhfQDETMR7p7zSE3fHwolj4rTvivGu+ECOTQ1p/Y4bwBQC0jVaGr/7uRhW+RoZnxQXXXBg3PnhrLHzgzti9f2/p8Q9g2glfQDHCFwBATfgCyEP4AooRvgAAasIXQB7CF1CM8AUAUBO+APIQvoBihC8AgJrwBZCH8AUUI3wBANSEL4A8hC+gGOELAKAmfAHkIXwBxQhfAAA14QsgD+ELKGpi4kDsfeO1WPDosip+nf2Nc+KEkb7Jga9b+AIA2kYrw9dAT2fM7JwRc2YPx/lfvSBuemh+zL/v9ti9//XSox/AtBO+gKKELwAA4QsgF+ELKEr4AgAQvgByEb6AooQvAADhCyAX4QsoSvgCABC+AHIRvoCihC8AAOELIBfhCyhK+AIAEL4AchG+gKKELwAA4QsgF+ELKGi8+rj39V2x4NFFcfvDt8XZXz8/ThgemuLAJ3wBAO8vecPXvIPha2/h2Q9g+glfQEHCFwBAInwB5CF8AQV9b/g665rzhC8AoO0IXwB5CF9AQe8evuYMzRK+AIC2InwB5CF8AQWNx8SE8AUAIHwB5CF8AQUJXwAAifAFkIfwBRR0OHzNf+TOo8JXClbCFwDQLoQvgDyEL6Ag4QsAIBG+APIQvoBiJuKd9CFee3133Pbgoljw2B1x7tcuiKGhwejvEL4AgPaRI3zNHhmK867+Qtz4YB2+dr2xr/T4BzDthC+gGOELAKAmfAHkIXwBxQhfAAA14QsgD+ELKEb4AgCoCV8AeQhfQDHCFwBATfgCyEP4AooRvgAAasIXQB7CF1CM8AUAUBO+APIQvoBihC8AgJrwBZCH8AUUNF6Fr1fe3BULH74zFj56e5x/9XkxPDQ4xYFP+AIA3l9aFb76ujomZ6DeyRmoK+bMHozzvnpu3HD/wph/76LY/ebu0sMfwLQTvoCChC8AgET4AshD+AIKqsPXzv2vCV8AQFvLEb5mjwwcCl/z7rkzdu3fVXr4A5h2whdQ0OHwteChO2LBI7cJXwBAW8oVvs69+hzhC2hrwhdQkPAFAJAIXwB5CF9AQcIXAECSM3xdf9+CuPXuO4QvoC0JX0BBwhcAQDId4eu1N14rPfwBTDvhCyjocPia/+DtVfg676pzhS8AoO20Knz1dzeEL4AjCF9AMRPxThW+Xnt9dyx84M6Y/+jtcfbV58fQ0GAMNIQvAKB9tHrFV19nd8yZPXjwVsf5B8PXq6XHP4BpJ3wBxQhfAAA14QsgD+ELKEb4AgCoCV8AeQhfQDHCFwBATfgCyEP4AooRvgAAasIXQB7CF1CM8AUAUBO+APIQvoBihC8AgJrwBZCH8AUUI3wBANSEL4A8hC+goDp87XhjV8x74I6Y//Btcd5V58fw0OCUBj7hCwB4v2lV+OrvblTha2ajK2aPDMS5V58T1983T/gC2pbwBRQkfAEAJMIXQB7CF1CQ8AUAkAhfAHkIX0BBwhcAQCJ8AeQhfAEFCV8AAInwBZCH8AUUJHwBACTCF0AewhdQkPAFAJAIXwB5CF9AQcIXAEAifAHkIXwBxUxUH8fj1ddfiQX3LY55Dy+Ks796TgwN98VAo1f4AgDaRqvCV19Xx+TnnqPC13X33hq33HW78AW0JeELKEb4AgCoCV8AeQhfQDHCFwBATfgCyEP4AooRvgAAasIXQB7CF1CM8AUAUBO+APIQvoBihC8AgJrwBZCH8AUUI3wBANSEL4A8hC+gGOELAKAmfAHkIXwBxUzEd6rPu/fuipsfuD0WPLAgzvza+TF71uCUBj7hCwB4v2lV+OrvbkzOQL2Hwtc5V50d194z72D4eq3w9Acw/YQvoBjhCwCgJnwB5CF8AcUIXwAANeELIA/hCyhG+AIAqAlfAHkIX0AxwhcAQE34AshD+AKKEb4AAGrCF0AewhdQjPAFAFATvgDyEL6AYoQvAICa8AWQh/AFFDYeu/e9EjffvygW3H9HnPm1c2L2UF/M7OgRvgCAttGq8NXX1VGFr77O7u8JX7v27yo9+AFMO+ELKOzdw1dfo1f4AgDahvAFkIfwBRQmfAEA5N7qePOm24QvoC0JX0BhR4evM756tvAFALSdnOHrm3ffWoUvZ3wB7Uj4AgoTvgAAcoWvs688S/gC2prwBRQmfAEACF8AeQhfQGHCFwBA7vA1d+NC4QtoS8IXUJjwBQAwHeHr1ddfLT34AUw74Qso6J3q4+69u2Lu/bfF/PvnxxlfPS9mzxqc2sAnfAEA7zMOtwfIQ/gCChK+AAAS4QsgD+ELKEj4AgBIhC+APIQvoCDhCwAgEb4A8hC+gIKELwCARPgCyEP4AgoSvgAAEuELIA/hCyhI+AIASIQvgDyEL6Ag4QsAIBG+APIQvoCC3omYiNjxxq645b7b4ub758U5V5wbQ7MGhC8AoK20Mnz1d/VU4WvO7ME4+8qz4ht33RJzNy4UvoC2JHwBBQlfAACJ8AWQh/AFFCR8AQAkwhdAHsIXUJDwBQCQCF8AeQhfQEHCFwBAInwB5CF8AQUJXwAAifAFkIfwBRQkfAEAJMIXQB7CF1CQ8AUAkAhfAHkIX0AxEwfD16v7dsW8e2+LuQ/MizOvPDdmzRqIgYbwBQC0j1aGr4Hu3snfo7sKX+dcdbbwBbQ14QsoRvgCAKgJXwB5CF9AMcIXAEAtV/iy1RFod8IXUIzwBQBQyxm+vr7pZuELaFvCF1CM8AUAUGt1+DrycPsUvm7asED4AtqS8AUUI3wBANRy3uoofAHtTPgCihG+AABqwhdAHsIXUIzwBQBQyxG+Zo8MCF9A2xO+gGImJiYmP47H7n2vxE333hG33rMwTr/6rJg91Bd9jV7hCwBoG8IXQB7CF1CM8AUAUBO+APIQvoBihC8AgJrwBZCH8AUUI3wBANSEL4A8hC+gGOELAKAmfAHkIXwBxQhfAAA14QsgD+ELKEb4AgCoCV8AeQhfQDHCFwBATfgCyEP4Agqrw9fc++48FL7mDPfHzI4e4QsAaButCl99XR3VDNTX2V2Fr7OuODOu2Tg3bly/MF59/dXSgx/AtBO+gMKELwAA4QsgD+ELKOxw+Lrl7gXCFwDQloQvgDyEL6Cww2d8CV8AQLsSvgDyEL6AwsZj196dh8LX5686U/gCANqO8AWQh/AFFHY4fN1813zhCwBoS8IXQB7CF1DYu4evvkav8AUAtA3hCyAP4QsorA5fN95zu/AFALQt4QsgD+ELKGai+jger+zbGbfefUfceO+COOPKM2N4pD8GhC8AoI20Mnz1d/VMzkBdVfg68/Iz4msbboob188XvoC2JHwBxQhfAAA14QsgD+ELKEb4AgCoCV8AeQhfQDHCFwBATfgCyEP4AooRvgAAasIXQB7CF1CM8AUAUBO+APIQvoBihC8AgJrwBZCH8AUUI3wBANSEL4A8hC+gmGb4evX1V6rwdf3d8+L0K86IoeE+4QsAaCutCl/93Y2DM9DR4euGdQuEL6AtCV9AMcIXAEBN+ALIQ/gCihG+AABqwhdAHsIXUIzwBQBQE74A8hC+gGKELwCAmvAFkIfwBRQjfAEA1IQvgDyEL6AY4QsAoCZ8AeQhfAHFCF8AADXhCyAP4QsoZiLeqerXq/t2xa33LIwb7r05Tr/87BgaGoyBxhQGPuELAHifaXX46uvsPhS+vrr+RuELaFvCF1DMd4ev6++ZK3wBAG0pV/g647LThS+grQlfQDHN8PXK3tfilrsXCF8AQNsSvgDyEL6AYoQvAICa8AWQh/AFFCN8AQDUchxuPzLcL3wBbU/4Aoo5MnzdfNf8uO7um+Lzl50lfAEAbadV4auvq0P4AjiC8AUUI3wBANSmI3y9su+V0uMfwLQTvoBihC8AgForw1f6fGT4unrdDcIX0LaEL6CYI8PXrXctiOvvuinOvOzsGB4ajEHhCwBoI60846sZvtLh9mdefkYVvq4fm2+rI9CWhC+gGOELAKAmfAHkIXwBxQhfAAA14QsgD+ELKEb4AgCoCV8AeQhfQDHCFwBATfgCyEP4AooRvgAAasIXQB7CF1CM8AUAUBO+APIQvoBihC8AgJrwBZCH8AUUc2T4uvmu+XHd3TfF5y87K4aGBmNA+AIA2kiu8HXGZafHVWPXC19A2xK+gGKELwCAmvAFkIfwBRQjfAEA1IQvgDyEL6AY4QsAoCZ8AeQhfAHFCF8AADXhCyAP4QsoRvgCAKgJXwB5CF9AMcIXAEBN+ALIQ/gCihG+AABqwhdAHsIXUMxE9XE8Xtm3M+ZuXBjXbrolTr/ijBga7ouBRq/wBQC0jVaFr4GezskZqHfy9+iO2SODccZlZ8RVYzfW4WvfrsLTH8D0E76AYoQvAICa8AWQh/AFFCN8AQDUhC+APIQvoBjhCwCg1sozvt4tfF23dp7wBbQl4QsoRvgCAKi1OnzVh9sLXwDCF1CM8AUAUMsVvk7/yunCF9DWhC+gGOELAKDWyvDV39VTha+R4QHhC2h7whdQjPAFAFATvgDyEL6AYg7EO1X9emXvazF307z45qYb4vRLz4zhocEYaExh4BO+AID3mVaGr3SwfXqa4evqdTfFtaO3Cl9AWxK+gGKELwCAmvAFkIfwBRQjfAEA1IQvgDyEL6AY4QsAoCZ8AeQhfAHFCF8AADXhCyAP4QsoRvgCAKgJXwB5CF9AMcIXAEBN+ALIQ/gCihG+AABqwhdAHsIXUMzEwQ+v7NsZczcujG9uvDn+/rLPx9BwXww0eoUvAKBttCp89XXNmPzcEzM7eqrw9flLPx9XjF5fha9X9r1SevwDmHbCF1CM8AUAUBO+APIQvoBijgxfN21YIHwBAG1L+ALIQ/gCimmGr517/z/27vvJrvM87Pg/EWF372I7QFKy4okdO3HilmTGiVNmkkmZSTy2GovAAgJE753ovfdCsACkSEqiLEsUJVG2JUcu+SEzcZzEiUmA6ARJ0f4h42DvE9x7dqEVRDmKcd99iDmfz8y5d8nBPT8/8z3v+56r7fD11HeeF74AgFoSvgDKEL6ANMIXAEBF+AIoQ/gC0kwMX2e+/bLwBQDUlvAFUIbwBaT5oPC1+sAa4QsAqB3hC6AM4QtIc3v4OvXts8IXAFBLwhdAGcIXkKYZo1X4+t71OPt7L8ZTv/dsrDmwPkZGhmKop0v4AgBqo1Pha6Ax5eYMNDX6u6bGPdOHYt2BdXHkt58TvoDaEr6ANMIXAEBF+AIoQ/gC0ghfAACVkuHLVkegzoQvII3wBQBQKRG+nPEFIHwBiYQvAICK8AVQhvAFpBG+AAAqnQxf3uoI8H3CF5BG+AIAqAhfAGUIX0Aa4QsAoNKp8NXf8xHhC2AC4QtI0xz7uPb+tTj7u1+IU99+4eZwtiZGhvtisKshfAEAtdGx8HXzt4O91T2mj0yLNXvXx6HXT8XTv/18vP3+e9njH8CkE76ANMIXAEBF+AIoQ/gC0ghfAAAV4QugDOELSCN8AQBUhC+AMoQvII3wBQBQEb4AyhC+gDTCFwBARfgCKEP4AtIIXwAAFeELoAzhC0gjfAEAVIQvgDKELyBNO3zFaFx7/2qc+fbLcerbZ2P1gTUxPCJ8AQD10qnwNdDouvn71hzVG9NGBmL13tVx+FvPxlPffCHefv+d5OkPYPIJX0Aa4QsAoCJ8AZQhfAFphC8AgIrwBVCG8AWkEb4AACrCF0AZwheQRvgCAKgIXwBlCF9AGuELAKAifAGUIXwBaYQvAICK8AVQhvAFpBG+AAAqwhdAGcIXkO6d967F6e98Pp7+7edj5cG1cc9I/9jAJnwBAPXQyfDVil4Tw9eh15+JU994Pq7/+bvZYx/ApBO+gHTCFwBQd8IXQBnCF5BO+AIA6k74AihD+ALSCV8AQN0JXwBlCF9AOuELAKg74QugDOELSCd8AQB1J3wBlCF8AemELwCg7oQvgDKELyCd8AUA1J3wBVCG8AWkaTab7e9W+Hrq2y/H6W+djRUH1sT04T7hCwColU6Fr8HermqO6u67Fb4OfvPpOPn1s/H2n7+dPP0BTD7hC0gjfAEAVIQvgDKELyCN8AUAUBG+AMoQvoA0whcAQEX4AihD+ALSCF8AABXhC6AM4QtII3wBAFSEL4AyhC8gjfAFAFARvgDKEL6ANMIXAEBF+AIoQ/gC0t0evu4Z6Re+AIBa6VT46u+dEkPdvTG10Rf3jQzGkv2r4vBrp+PYN4QvoJ6ELyCd8AUA1J3wBVCG8AWkE74AgLoTvgDKEL6AdMIXAFB3whdAGcIXkE74AgDqTvgCKEP4AtIJXwBA3QlfAGUIX0A64QsAqDvhC6AM4QtIJ3wBAHUnfAGUIXwBuZoRl96/Gqd/56U48a0zsWbPqhgZ7hO+AIBa6VT4GmhMqeao7r6YPm0wVt2crQ5+8+k4+fWzcf0vrmdPfgCTTvgCcglfAABFw9eBb5wWvoDaEr6AXMIXAMCkhC9bHYE6Er6AXMIXAECR8DVtZED4AmpP+AJyCV8AAMXD14nXzghfQC0JX0Au4QsAQPgCKET4AnIJXwAARcPX/q8/1Q5f196/lj35AUw64QvIJXwBAAhfAIUIX0C66+9ejVO/+1I89fqZWL5/dUwXvgCAmulU+Opv3JyBuhoxtdEb9w4PxJJ96+LQq8/E0a8/H9fev5o99gFMOuELSCd8AQB1J3wBlCF8AemELwCg7oQvgDKELyDdePg69c3nhC8AoJaEL4AyhC8gnfAFANSd8AVQhvAFpGuFr5O/82I7fC3bt0r4AgBqR/gCKEP4AtIJXwBA3QlfAGUIX0C6t9+50g5fJ7/xrPAFANSS8AVQhvAF5BptxuU/vxanvvW5OPnbZ2PVrhUxbaRf+AIAaqVT4WugMaWao7r7bs5UA7Fy98rY99qpOP615+La+9eyJz+ASSd8AbmELwAA4QugEOELyCV8AQAIXwCFCF9ALuELAED4AihE+AJyCV8AAMIXQCHCF5BL+AIAEL4AChG+gFzCFwCA8AVQiPAF5BK+AACEL4BChC8gVbPZjHfeuxbHv/VCPPX6mVi6d0XcI3wBADXTyfA10NN7K3yt2LVC+AJqTfgCUglfAADCF0ApwheQSvgCABC+AEoRvoBUwhcAgPAFUIrwBaQSvgAAhC+AUoQvIJXwBQAgfAGUInwBqYQvAADhC6AU4QtIJXwBAAhfAKUIX0CqHw5fK4UvAKB2Ohm+2nPUhPC159UTcezVZ4UvoJaELyCV8AUAIHwBlCJ8AamELwAA4QugFOELSHV7+FqyxxlfAED9CF8AZQhfQKrx8HXs9efj1DefE74AgFoSvgDKEL6AVK3wdf3dq8IXAFBrwhdAGcIXkEr4AgAQvgBKEb6AVMIXAIDwBVCK8AUkG413vnc5jr1+Jk5+vRW+Vo2FrzsY+IQvAOAu06nw1d+4OQN1dcfU3p64d3ggFt2crfZ/5WQcevWZuPq9K9mDH8CkE76AZMIXAIDwBVCG8AUkE74AAIQvgDKELyCZ8AUAIHwBlCF8AcmELwAA4QugDOELSCZ8AQAIXwBlCF9AMuELAED4AihD+AKSCV8AAMIXQBnCF5CsCl9Hv/lcO3wt3r1S+AIAaqdT4au6etv3uGf6YCzbsSz2vnoqjn71uXj7z69lD34Ak074ApIJXwAAwhdAGcIXkOz74evEa88KXwBALZUOX0e+8qzwBdSS8AUk++HwNX24T/gCAGqlVPhaun2p8AXUmvAFJBO+AABKhq89Xz3ZDl/X3r+aPfgBTDrhC0jVbN74wPDVClbCFwBQF8IXQBnCF5BK+AIAKBO+pk8buBW+Dv/WM8IXUEvCF5BK+AIAEL4AShG+gDzN6uud712NY6+fiZNffy6W7FkV9wwP3BzWGsIXAFAbnQpf/Y2eGOrujd5Gd9w3MhDzdy2N/V85GQe+InwB9SR8AXkmhK/Wiq9W+Gqt+BK+AIC6Eb4AyhC+gDy3ha/xrY7CFwBQN8IXQBnCF5BH+AIAaBO+AMoQvoA8whcAQJvwBVCG8AXkGQtf19+7Eke+8ez33+o41C98AQC1InwBlCF8AXluC1/Hv/aM8AUA1JLwBVCG8AXk+YDwtWjXCuELAKgd4QugDOELSNVsNuP6u1fjyDfOxPHXno7Fu5fH9OE+4QsAqJXOha+uGOruGQtfgzFvx4rY9+VTsf+3no6r3xO+gPoRvoBUwhcAgPAFUIrwBaQSvgAAhC+AUoQvIJXwBQAgfAGUInwBqYQvAADhC6AU4QtIJXwBAAhfAKUIX0Aq4QsAQPgCKEX4AlIJXwAAwhdAKcIXkGu02R7Cjn/tbBz8xjOxZMeyGB7pi8Eu4QsAqI/Oha+eGOrubYevj04bjPm7lsbeLx9vh69r7wtfQP0IX0Au4QsAQPgCKET4AnIJXwAAwhdAIcIXkEv4AgAQvgAKEb6AXMIXAIDwBVCI8AXkEr4AAIQvgEKELyCX8AUAIHwBFCJ8AbmELwAA4QugEOELSNMc+2iFrxOvnYnD33h6LHz1x2DXVOELAKiNToevRk9XO3zN27mkHb72ffn0zZnrSvb4BzDphC8gjfAFAFARvgDKEL6ANO3wdWur43PCFwBQW8IXQBnCF5Dm9vB16OunhS8AoJaEL4AyhC8gzXj4uvLeFeELAKg14QugDOELSCN8AQBUhC+AMoQvIM3E8HXs1Wfb4Wvx9qXCFwBQO8IXQBnCF5Dm9vB18LWnhC8AoJaEL4AyhC8gVzPGDrc/G/tfG1/x1ReDXQ3hCwCojU6Hr95Gd9w3MhBzb85Wu185Hnt/86n2zAVQN8IXkEv4AgAQvgAKEb6AXMIXAIDwBVCI8AXkEr4AAIQvgEKELyCX8AUAIHwBFCJ8AbmELwAA4QugEOELyCV8AQAIXwCFCF9ALuELAED4AihE+AJyjYWvo199LvZ97SnhCwCopRLh66PTBmPejmWx50snYt+XT8e1969lT34Ak074AnIJXwAAxVZ8CV9A3QlfQC7hCwCg6FZH4QuoM+ELyCV8AQBMSvhyxhdQR8IXkEv4AgBwuD1AIcIXkEv4AgAQvgAKEb6AXMIXAMCkhK8r713JnvwAJp3wBeQSvgAAhC+AQoQvINdY+Dr26hnhCwCorc6Gr55b4WvOtiWx65UjtjoCtSV8Abms+AIAEL4AChG+gFzCFwCA8AVQiPAF5BK+AACEL4BChC8g123ha9HN4Uz4AgDqRvgCKEP4AnJNCF97Xz0lfAEAtSR8AZQhfAG5mtF+tbbwBQDUmfAFUIbwBeQSvgAAhC+AQoQvIE2z/Tkal753OQ599enY++rpWLRtRYwM98dg119/4BO+AIC7TefCV9eE8DUYc7Yti51fOBp7vnRK+AJqSfgC0ghfAAAV4QugDOELSCN8AQBUhC+AMoQvII3wBQBQEb4AyhC+gDTCFwBARfgCKEP4AtIIXwAAFeELoAzhC0gjfAEAVIQvgDKELyCN8AUAUBG+AMoQvoBco8248t6VOPKVZ2PPV0/Gwq2LY2h4agx2NYQvAKA2OhW+Bhpd0d/oad/jnulDsWDLstj2ytHY/8qpuPb+tezJD2DSCV9ALuELAED4AihE+AJyCV8AAJMSvmx1BOpI+AJyCV8AAMXD174vnhS+gFoSvoBcwhcAQJHwNX3aYDt8bf3iEeELqC3hC8glfAEACF8AhQhfQC7hCwCgWPiav3nprfDVmrkA6kb4AnIJXwAAxcPX3i+cEL6AWhK+gFzNuBW+9r56KhZtWxLDI33CFwBQK50MX63v1gzUCl8LNy211RGoNeELyCV8AQAIXwCFCF9Argnhq7XVUfgCAOpI+AIoQ/gCct0WvlpnfAlfAEDdCF8AZQhfQK5mxOV3L8fh33pG+AIAakv4AihD+AJyTQhfu79yQvgCAGpJ+AIoQ/gCco02fyh8DQ1PFb4AgFoRvgDKEL6AXMIXAIDwBVCI8AXkui18LdiyqB2+hrp7hS8AoDY6Fb76G10356ie6G10x30jg/HE1qWx/eXDseuLJ9ovFAKoG+ELyCV8AQAIXwCFCF9ALuELAED4AihE+AJyCV8AAMIXQCHCF5BL+AIAEL4AChG+gFzCFwCA8AVQiPAF5BK+AACEL4BChC8gl/AFACB8ARQifAG5mtEewg59+enY+eVjt8LXYFdD+AIAaqNU+Jq9ZYnwBdSa8AXkEr4AAIQvgEKELyCX8AUAUDR8bXvpkPAF1JbwBeQSvgAAhC+AQoQvIJfwBQBQJHzdOzxwK3zt/MJx4QuoJeELyCV8AQB0LHz19Uy5OUd1R6OnS/gCCOELyCZ8AQAIXwCFCF9ALuELAED4AihE+AJyTQhfu37ruPAFANRS58746omh7t7o7Wm0w9eszYuFL6DWhC8gl/AFACB8ARQifAG5hC8AAOELoBDhC8jljC8AAOELoBDhC8jVjLj87uU4+JunhS8AoLaEL4AyhC8gl/AFACB8ARQifAG5PiB8DY/0CV8AQK0IXwBlCF9Arh8RvloDm/AFANSF8AVQhvAF5LotfM3fvNBWRwCgdkqGr60vHhS+gNoSvoBcwhcAgPAFUIjwBeQSvgAAhC+AQoQvIJfwBQAgfAEUInwBuYQvAADhC6AQ4QvIJXwBAAhfAIUIX0Au4QsAQPgCKET4AnIJXwAAwhdAIcIXkKsZcemdS3HgS0/Fjt88KnwBALXUqfBVXb03Z6CemDYyEPPWL4qNLx2I3S8fE76AWhK+gFzCFwCA8AVQiPAF5BK+AACEL4BChC8gl/AFACB8ARQifAG5hC8AAOELoBDhC8glfAEACF8AhQhfQC7hCwBA+AIoRPgCcglfAADCF0AhwheQqx2+LsaBL52MHb95POZvXhpDw30x2HWnA5/wBQDcPTodvvq7G7fC14YX98eul44KX0AtCV9ALuELAED4AihE+AJyTQhf2790TPgCAGpJ+AIoQ/gCco2Fr/2vnGiHr3mblghfAEDtCF8AZQhfQC7hCwBA+AIoRPgCco02b4Wvba8cFb4AgFoSvgDKEL6AXKPNuHj9Quz74nHhCwCoLeELoAzhC8glfAEACF8AhQhfQK72GV+XYv8rp2LbK4dj3qYFMTQ8NYa6e4UvAKA2OhW++hs97Tmqt6cR9w4PxOObFsXmF/bH9pePxuV3L2dPfgCTTvgCcglfAADCF0AhwheQS/gCABC+AAoRvoBcwhcAgPAFUIjwBeQSvgAAhC+AQoQvIJfwBQAgfAEUInwBuYQvAADhC6AQ4QvIJXwBAAhfAIUIX0Cudvi6GPu+eDy2fvFIzNu0JIaG+2Kw668/8AlfAMDdplT4mrlxYWw8uze2vXRE+AJqSfgCcglfAADCF0AhwheQS/gCABC+AAoRvoBcwhcAgPAFUIjwBeQSvgAAhC+AQoQvIJfwBQAgfAEUInwBuYQvAADhC6AQ4QvIJXwBAAhfAIUIX0CuZtwcwi79UPga6r6z6CV8AQB3k06Fr+rqvXmPRkwbGYi5Ty6MJ1/YGztfFL6AehK+gFzCFwCA8AVQiPAF5PoRWx2FLwCgToQvgDKELyCX8AUAIHwBFCJ8AbnGwtfeLxxrh6+5GxcLXwBA7QhfAGUIX0CuCeFryxcOC18AQC0JXwBlCF9ALuELAED4AihE+AJyCV8AAMIXQCHCF5DrR4Svwa47HfiELwDg7lEqfM1ZtyDWPb8ndnzusPAF1JLwBeQSvgAAhC+AQoQvIJfwBQAgfAEUInwBuYQvAADhC6AQ4QvIJXwBAAhfAIUIX0Au4QsAQPgCKET4AnIJXwAAwhdAIcIXkEv4AgAQvgAKEb6AXKPNm0PYpdj10uHY+sUj8cT6hcIXAFA7JcLXyHC/8AXUnvAF5BK+AACEL4BChC8gl/AFACB8ARQifAG5hC8AAOELoBDhC8glfAEACF8AhQhfQC7hCwBA+AIoRPgCcglfAADCF0AhwheQS/gCABC+AAoRvoBczYiL1y/E7pePxLZXjsbsJxfEyLSBGJjSJXwBALVRKnw9sXZ+rD27O7a/cCguvXMpe/IDmHTCF5BrQvhqrfiatW6+8AUA1I7wBVCG8AXkEr4AAIQvgEKELyDXWPgaP+NL+AIA6kj4AihD+AJyfUD4Gh7pF74AgFoRvgDKEL6AXBPC15YvHBa+AIBaEr4AyhC+gFzNiAtvvyV8AQC1JnwBlCF8AbluC1+Pr53XDl+DXXc68AlfAMDdQ/gCKEP4AtI0xz7Gtzpu+/zhW4fbC18AQJ2UCF/TRgba4WvNmV2x7fmDcfndy9njH8CkE76ANMIXAEBF+AIoQ/gC0ghfAAAV4QugDOELSCN8AQBUhC+AMoQvII3wBQBQEb4AyhC+gDTCFwBARfgCKEP4AtIIXwAAFeELoAzhC0gjfAEAVIQvgDKELyDXaDMuXb8SOz53ODZ//kDMfnJeDI/0x2BXQ/gCAGqjY+Gr0XXr7++Hrz2x/fkjcfmdq9mTH8CkE76AXMIXAEDR8LX6ud2x7exh4QuoJeELyCV8AQB0PHy17iF8AQhfQDbhCwBA+AIoRPgCcglfAADCF0AhwheQS/gCACgWvmavmSd8AbUmfAG5hC8AAOELoBDhC8glfAEAdCx89fdMuXUP4QtA+AISNdsfN+LSO5fa4WvLS4dj1rr5Y+HrDp50Cl8AwF2mkyu+xu8xMtwvfAG1J3wBaYQvAIBKia2OwheA8AUkEr4AACrCF0AZwheQRvgCAKgIXwBlCF9AGuELAKBSMnytenaX8AXUlvAFpBG+AAAqpcPX1jOH2m/SBqgb4QtII3wBAFQ6Fb4Ge7uFL4AJhC8gjfAFAFARvgDKEL6ANO3wFaNx8frF2Pnikdj68pF4fO28GJk2IHwBALViqyNAGcIXkEb4AgCoCF8AZQhfQJqJ4Wt8q6PwBQDUkfAFUIbwBaQRvgAAKsIXQBnCF5BG+AIAqAhfAGUIX0Ca8fB14e0Lt8LXzDVzhS8AoHaEL4AyhC8gzcTwtf2FQ7H5xUPCFwBQS8IXQBnCF5BG+AIAqAhfAGUIX0Cadvhq3ohL71y6Fb5aZ3wNDfcJXwBArXQqfPU3umKouyd6G91xz1B/PLxubqw5vTM2nj0ofAG1JHwBaYQvAICK8AVQhvAFpBG+AAAqwhdAGcIXkEb4AgCoCF8AZQhfQBrhCwCgInwBlCF8AWmELwCAivAFUIbwBaQRvgAAKsIXQBnCF5BG+AIAqAhfAGUIX0CadvgabcaFdy/G1s8diA0v7o+Za+bG4NBU4QsAqJVOha+J18hwX8xa/USsfGZ7bHlO+ALqSfgC0ghfAAAV4QugDOELSCN8AQBUhC+AMoQvII3wBQBQ6XT4at3j9vB18e3L2eMfwKQTvoA0whcAQKVU+Hp81WzhC6g14QtII3wBAFRKhq8VT28TvoDaEr6ANMIXAEBF+AIoQ/gC0ghfAAAV4QugDOELyNUcjQtvX4jtLxyKDS8ejMdWz4nhkX7hCwColU6Gr/EZaPq0gZi5clY7fG16Zr+3OgK1JHwBuYQvAADhC6AQ4QvIJXwBAAhfAIUIX0Au4QsAQPgCKET4AnIJXwAAwhdAIcIXkEv4AgAQvgAKEb6AXMIXAIDwBVCI8AXkEr4AAIQvgEKELyDXaDMuXr8QW8/ui/Wf2xcz18yNwaGpMdR9Z9FL+AIA7iYdC1+NrhjuaUSjpys+NjwYM1bNjtUnt8f6Z/bFZeELqCHhC8glfAEACF8AhQhfQC7hCwBA+AIoRPgCcglfAADCF0AhwheQS/gCABC+AAoRvoBcwhcAgPAFUIjwBeQSvgAAhC+AQoQvIJfwBQAgfAEUInwBuZrRDl9bzuyNdc/vicdWz2mHr8GuOxj4hC8A4C5TKnx9duUs4QuoNeELyCV8AQAIXwCFCF9ALuELAED4AihE+AJyCV8AAMIXQCHCF5BL+AIAEL4AChG+gFzCFwCA8AVQiPAF5BK+AACEL4BChC8gl/AFACB8ARQifAG5hC8AgI6Gr6Hunh8IX6tObIsnn94rfAG1JHwBuYQvAADhC6AQ4QvIJXwBAAhfAIUIX0Au4QsAQPgCKET4AnIJXwAAwhdAIcIXkEv4AgAQvgAKEb6AXMIXAIDwBVCI8AXkEr4AAIQvgEKELyDX6I24eP1ibH5uX6w9uzceWzVvLHw1hC8AoDY6Fr5uXkPdvTG10Rv3DfbHjFWzY8WxLe3wdenty9mTH8CkE76AXMIXAIDwBVCI8AXkEr4AAIQvgEKELyCX8AUAIHwBFCJ8AbmELwAA4QugEOELyCV8AQAIXwCFCF9ALuELAED4AihE+AJyCV8AAMIXQCHCF5BrtHkrfK05syceXTl3LHzd2cAnfAEAd5NOhq/+7kb7Ghnuj8dWzI7FJzbHhtN746LwBdSQ8AXkEr4AAIQvgEKELyCX8AUAIHwBFCJ8AbmELwAA4QugEOELyCV8AQAIXwCFCF9ALuELAED4AihE+AJyCV8AAMIXQCHCF5BL+AIAEL4AChG+gFzN0Xjr2lvt8LX27N54eMWsGBruE74AgFopEb6mjQzEw0tnxtJTW2PtiZ3CF1BLwheQS/gCABC+AAoRvoBcwhcAgPAFUIjwBeQSvgAAhC+AQoQvIJfwBQAgfAEUInwBuYQvAADhC6AQ4QvIJXwBAAhfAIUIX0Au4QsAQPgCKET4AnI1ox2+Nj27N9ac2RMPL39C+AIAaqdj4avRNTYD9YyFr1mx+MTmePLUHuELqCXhC8glfAEACF8AhQhfQC7hCwBA+AIoRPgCcglfAADCF0AhwheQS/gCABC+AAoRvoBcwhcAgPAFUIjwBeQSvgAAhC+AQoQvIJfwBQAgfAEUInwBaZrNuBW+Nj6zJ1Y/t/tW+BqY0iV8AQC10cnwVd2j0Q5fM5Y83g5fa0/sEr6AWhK+gDTCFwBARfgCKEP4AtIIXwAAFeELoAzhC0gjfAEAVIQvgDKELyCN8AUAUBG+AMoQvoA0whcAQEX4AihD+ALSCF8AABXhC6AM4QtII3wBAFSEL4AyhC8g11j42vzcvlj17K52+Boe6Re+AIBa6Vj4al+97asKX4/FkpNbYu2JncIXUEvCF5BrLHxtenav8AUA1FbJ8FWt+BK+gHoSvoBcwhcAgPAFUIjwBeS6LXzNWDZb+AIAaqfT4ev7Z3wJX0C9CV9Argnha+UzO4UvAKCWOhm+WtHr9vC15vgO4QuoJeELyDXhrY7CFwBQVyXC18hwf3x28aPCF1BrwheQqxlx/up54QsAqDXhC6AM4QvIJXwBAAhfAIUIX0Cu5uitrY4rnt4Rn106ayx83Vn0Er4AgLtJqTO+WuFr4bGNsfrY9rh0/Ur25Acw6YQvIJfwBQAgfAEUInwBuYQvAADhC6AQ4QvIJXwBAAhfAIUIX0Au4QsAQPgCKET4AnIJXwAAwhdAIcIXkEv4AgAQvgAKEb6AXMIXAIDwBVCI8AXk+hHha7CrIXwBALXRyfA10NN7cwbqaYevGUseiwVHN8TaEzvj4tuXsyc/gEknfAG5hC8AAOELoBDhC8glfAEACF8AhQhfQC7hCwBA+AIoRPgCcglfAADCF0AhwheQS/gCABC+AAoRvoBcwhcAgPAFUIjwBeQSvgAAhC+AQoQvIE2z/fn98LXqtPAFANRTp8LXYG/3zTmqO3p7GvHRoYG4f+nMWHp4Y6w4tj0uCV9ADQlfQBrhCwCgInwBlCF8AWmELwCAivAFUIbwBaQZD1/nr55vh6+VT20XvgCAWhK+AMoQvoA0E8PXhqd3t8PXQ0seF74AgNoRvgDKEL6ANMIXAEBF+AIoQ/gC0ghfAAAV4QugDOELSCN8AQBUhC+AMoQvIM0HhS+H2wMAddSp8DXQ6Bq7RyOmjQzEQ4seiwVHN8Sqo9vjwrVLydMfwOQTvoA0VnwBAFSEL4AyhC8gjfAFAFARvgDKEL6ANMIXAEBF+AIoQ/gC0twevlac2iZ8AQC1JHwBlCF8AWnGw9e5K+di/eldt8LX0HCf8AUA1IrwBVCG8AWkEb4AACrCF0AZwheQ5oPC14OLZwpfAEDtCF8AZQhfQJpmq3w1qzO+nnxqZyw9tfXWGV8DU+4seglfAMDdpFPha7C3+1b4GhnujwcXPhrzj6yPlUe2CV9ALQlfQBrhCwCgInwBlCF8AWmELwCAivAFUIbwBaQRvgAAKsIXQBnCF5BG+AIAqAhfAGUIX0Aa4QsAoCJ8AZQhfAFphC8AgIrwBVCG8AWkEb4AACrCF0AZwheQpjn20Q5fp3bH8pNj4Wt4UPgCAGqlU+FroNEVQ909MbXRG/cNDManFz8aiw5siOVHt8XFq1eyxz+ASSd8AWmELwCAivAFUIbwBaQRvgAAKsIXQBnCF5BG+AIAqAhfAGUIX0Aa4QsAoCJ8AZQhfAFphC8AgIrwBVCG8AWkEb4AACrCF0AZwheQRvgCAKgIXwBlCF9AstG4cOlcrH56Z6w6tiXuXzozpg32RV+X8AUA1Ecnw9dgV3f09jTa4etTix5ph69lR7YKX0AtCV9AMuELAED4AihD+AKSVeFr1ekdwhcAUFvCF0AZwheQ7IfD1/ShfuELAKgV4QugDOELSCZ8AQAIXwBlCF9Asg8OX/3dDeELAKgN4QugDOELSCZ8AQAIXwBlCF9AMuELAED4AihD+ALSNNufo3H+6vlYd2pHLDuxJR5cPDOGhvtuDmzCFwBQH50KX4O947/vjWkjQ/HAgkdi7sH1sfzQlrhwTfgC6kf4AtIIXwAAlU6u+Lo9fM058KTwBdSW8AWkEb4AACqdDl+tYyOELwDhC0gkfAEAVIQvgDKELyCN8AUAUCkRvkaGB4UvoPaELyCN8AUAUBG+AMoQvoA0whcAQEX4AihD+ALSCF8AAJXJCF9vXb2cPP0BTD7hC0jTHPs4d/mtWHtiZyw5uiUeWPRYDI/0x2DXHQx8whcAcJfpWPi6ebWiVxW++uOBBTNizsG1sfzQ5rhw7VL2+Acw6YQvII3wBQBQEb4AyhC+gDTCFwBARfgCKEP4AtIIXwAAFeELoAzhC0gjfAEAVIQvgDKELyCN8AUAUBG+AMoQvoA0whcAQEX4AihD+ALSCF8AABXhC6AM4QtI80Hh6/6Fj8bQcJ/wBQDUSsfCV6Nr7B6t8DUY9897JObtfzJWHNwSF65ezB7/ACad8AWkEb4AACrCF0AZwheQ5q8KX0Pddxa9hC8A4G4ifAGUIXwBaW4PX4uPbBa+AIBaEr4AyhC+gDTCFwBARfgCKEP4AtJMDF9rju8QvgCA2hK+AMoQvoA0whcAQEX4AihD+ALSCF8AABXhC6AM4QvI1RyNNy+/2Q5fi4613ur4WAwNDQhfAECtFAtf8x+O2fvWxrKDm+Otq5ezJz+ASSd8AbmELwAA4QugEOELyDUhfC08uln4AgBqSfgCKEP4AnIJXwAAwhdAIcIXkGssfK0+tl34AgBqS/gCKEP4AnI1R+ONS28IXwBArQlfAGUIX0CuCeFrwZFN8ZkFjwpfAEDtCF8AZQhfQK7RG8IXAFB7whdAGcIXkKY59vHmpfPt8LXo8Ka4f+GjMTzSL3wBALXSqfA12Nv9A+HrM/NmCF9ArQlfQBrhCwCgInwBlCF8AWmELwCAivAFUIbwBaQRvgAAKsIXQBnCF5BG+AIAqAhfAGUIX0Aa4QsAoCJ8AZQhfAFphC8AgIrwBVCG8AWkEb4AACrCF0AZwheQayx8rTq6LeYf3hifWfBIDA33CV8AQK10KnwNNLrGft/bDl+fnvvZmLV3TSw9sEn4AmpJ+AJyCV8AAMIXQCHCF5BL+AIAEL4AChG+gFzCFwCA8AVQiPAF5BK+AACEL4BChC8gl/AFACB8ARQifAG5hC8AAOELoBDhC8glfAEACF8AhQhfQJrm2EcrfK0+tj0WHvp++BrsuoOBT/gCAO4yJcPXzN2rYsn+jcIXUEvCF5BmYvhqrfgSvgCAuhK+AMoQvoA0whcAQEX4AihD+ALS/FXhyxlfAECdCF8AZQhfQJrbw9eCgxvi0/MfFr4AgNoRvgDKEL6ANOPh642L52Llka3CFwBQW8IXQBnCF5BG+AIAqAhfAGUIX0Aa4QsAoCJ8AZQhfAFp2uErRuP81fOx4vCWWHR4U3xq3sMxfHNIE74AgDopFb4+M29GPL5ntfAF1JbwBaT5q8LXYNcdDHzCFwBwlxG+AMoQvoA04+Hr3JVzwhcAUGsltzoKX0CdCV9AGuELAKDSqfA12Ns9do+GM74AQvgCEglfAAAV4QugDOELSFO91fGG8AUA1F6J8DU8NBCfmvOQ8AXUmvAFpJkYvpYf2hwLD22MT86dIXwBALUjfAGUIXwBaYQvAICK8AVQhvAFpPmrwtdQ951FL+ELALibdDJ8tb6FL4CK8AWkEb4AACqlV3wt3rdB+AJqSfgC0ghfAAAV4QugDOELSCN8AQBUhC+AMoQvII3wBQBQKRm+Htu1UvgCakv4AtIIXwAAFeELoAzhC0gjfAEAVIQvgDKELyCN8AUAUBG+AMoQvoA07fA12oxzl9+KFYe3xLz9T8an5z8cA4O9whcAUCudCl+tq32PnikxPNQXn5z9UDy6c2Us2rsx3rp6MXv8A5h0wheQRvgCAKgIXwBlCF9AGuELAKAifAGUIXwBaYQvAIBK58JX748IX+uFL6CWhC8gjfAFAFDpePi6eQlfAMIXkEj4AgCodDZ8NT44fF17K3v8A5h0wheQRvgCAKgIXwBlCF9AGuELAKAifAGUIXwBaZpjH+evXIjlhzbHgoMb4pNzPxvDI/0x2HVnbzMSvgCAu0mnwtdgY+oPn/G1Y3Us3LPh5sx1KXv8A5h0wheQRvgCAKgIXwBlCF9Amonha9nBTcIXAFBbwhdAGcIXkGY8fLXO+GqFr/kH1scn5jwkfAEAtSN8AZQhfAFphC8AgIrwBVCG8AWkmRi+lh7YKHwBALUlfAGUIXwBaYQvAICK8AVQhvAFpLk9fM3b/2Q7fA0N9wlfAECtCF8AZQhfQJp2+IrRePPym7Hi8JZ2+PrUvIdjaGgghrrvLHoJXwDA3aRT4Wugp/fW71vh6xOzHoxHtq8SvoDaEr6ANLeHr7n71glfAEAtCV8AZQhfQJrx8PXGpTdi+aHNwhcAUFvCF0AZwheQRvgCAKgIXwBlCF9Amg8KX5+cO0P4AgBqR/gCKEP4AtJMDF/LDm6KOXvXCl8AQC0JXwBlCF9AGuELAKAifAGUIXwBaYQvAICK8AVQhvAFpBkPX+eunIulBza2z/j6jSceaoevwa47GfiELwDg7tLJ8NV6gDi1tyfuHeiLX5vzYDy+dVUs2LsxLly5nDz9AUw+4QtII3wBAFRKh6/5ezbEW5et+ALqR/gC0ghfAAAV4QugDOELSCN8AQBUOhW+BhtThS+ACYQvII3wBQBQKRG+7umf2g5fM7esFL6A2hK+gDTCFwBApXT4mrd7fZy/dDF5+gOYfMIXkEb4AgColApf/+GJB4QvoNaELyCN8AUAUBG+AMoQvoA04+HrzctvxpL9G2LO3rXx67MfbIev1sAmfAEAdfGn//1/xN/6+E90JHyN32N4qC8+MevBmLF1RSxoha8rzvgC6kf4AtIIXwAAldaKL+ELoPOELyCN8AUAUOnkVkfhC+D7hC8gjfAFAFARvgDKEL6ANMIXAEDFGV8AZQhfQBrhCwCgInwBlCF8AWmELwCAyn//k/8WP/mxjwpfAB0mfAFphC8AgMqf/PF/jY/fd6/wBdBhwheQqtm8EecvvBELD22M+bvWxG/MnxHD/X3taHWn4WuotzemTpkSP3HvPfFHf/CHwhcA8KH1R9/9j3HftJE7nn8Genrb0WuwqztGBqbGJ1vha/OymLd9bbx19XL26Acw6YQvIFUrfL118c12+Jq3c3VHw9f4iq9W+PrO735b+AIAPrR+/zvfjo/dM70j4as9B42Fr088/kA7fM3dIXwB9SR8AclGPzB83fnQ13Nrmf9Hp0+L1179mvAFAHxovf7a1+LekeGOhq/h/t74jccfiIe3LL85Z62z1RGoJeELSNNstk75Go0Ll87FgoMbYu6OVR0NX63VXq3v1v2+8PLnhS8A4EPrlZdfiqG+qR0LX63zUocGp7bP+Hpk6wrhC6gt4QtI80Hh65MLH4lpgwN3dKjrxBVfre2OU7u74vSpp4QvAOBD6/SJ4+2ZpVPhq3WNDPfHJ+Z8Nh7etlL4AmpL+ALSjIev1lbH+QfWt7c6fnrxYzF9aLAj4av9tLO3N3o+8jdix7btwhcA8KG1c+uWjoSv4Z6pt+ao6fcMxafnP9IOX60zvoQvoI6ELyBZFb7m7X+y/VbHB5bNap9v0cnw1ZjykZg/d57wBQB8aC1ZML8j4Wuk0dc+7qE1S9330Wlx/+KZ7fA1Z/sa4QuoJeELSDYa5y+80Q5fC3avjQeXz26/yruTWx17u6bEZz71aeELAPjQevjBB9ozSyfC19QpU6oX/Hxsejy4dFY7fD2xbbW3OgK1JHwBaW7caLa/37x6IZbsXBtz9qyJGWvnxbSPjsT0KXe+2qv1tHOkr6+94utf/Oo/Eb4AgA+t1qwy/mKeO7ka3WMH29+8/uZPfzweWbcwHt60LBZuXxdvXLmYPP0BTD7hC0j3Z5fPt8PX3L1rY+bGxfGxn/pYTOtudGTFV+u7dcbX3/87PxtvnX/zjeyhFgDgdufPvfHeL/69n2uv1LrT+ae3pxHDN6/Bru74yZ/9yXj0yUXxyOblsXjn+jh3zYovoH6ELyDV6Oho/K9L52LprnXxxO7V8fjmpfFTP/dTMfSRO3/i2drm2D7jotHT3j75h3/wXau+AIAPndaM8vH77u3IUQ+t8DXS6I2BKV3x07/wM/HohsUxY/OyWLRtXZy7bMUXUD/CF5Dqxo0bcfHty7Hm4JaYvWtVO3z97C//3ej7Gx+548FvfNXXyEB/DPQ24oXnzwhfAMCHzoufez4Gp/a2H9rd6ewztbunHb5aq8d+/ld+MR7ZtCQe3LC4Hb7+7ML57NEPYNIJX0C69//3X8TOZw+1V3zN3ro8fvFX/0FHlvq3Vnu1rtYg2XpL0ob164QvAOBDZ9PG9e1ZpRMrvvrGtjq27vcr/+pX2+HroY1LYvX+bXHl+tvZYx/ApBO+gHR/GTfi8EtPVeFrx8r4x//mn90c2u588Btf8dV6Q1Lrfg/c782OAMCHz4MPfKY9q3TicPv+Rm/7YPvW/f7Vb/zbeLgVvjYvi13PHI2/vPF/ssc+gEknfAGpms1mO3wdefl0PL5jRczZtTr+5a//m+ibeudL/VvbBVpX+wlqoyd++Zd+IS6cf+v17OEWAGDcG2+88d4//Ae/1LGHfgO9U9sH2w/0T41fe+RTMWNzFb4Ofu50NLMHP4AEwheQqnW4/f9u/mV7xdfM7ctjwb4n498+8GsxONDXka2OQ729t7Y6ThsZij/47u9b9QUAfGh897vfjXvvmdZeod6R1e6N3uqM0+HBuH/uw+3wdf+GxXHghafaZ6sC1I3wBeRpPXYcjWgtun/mq5+PGZsWxRO7V8an58yIoaGB9tDWClfjg1zr79b/a53/NTx16v9z8Gv9u9aKr/HftQ64P370mPAFAHxonDx5PHq6p9w6oqETxzy0Hvh97OP3xkNLZsVnNy2OB59cFMdfPtt+4AhQN8IXkGcsfLWePX7tD3835uxZE/P3r42Hl8yOe+6bfit2jQ9x43+Pr+T6fw1+t4LX2H83pnwkZj76mPAFAHxozJ41sx2qej/ykY681XE8fP3tn/vpeGTVvHhk67J4dMuK+OK3Xsue/ABSCF9AqtH/04wboxHf+S//KR7ftjxm7Vwes9ctip/8mb/1A+Gr/XbGsTO7ftynoa1VYa3ftf5963et8PULf//n48qVK5/KHnIBAM6de+O9X/rFn7/1Rscf58Hej3M1erril//pP4yZTy5qH27/yMZl8Z3//J+yxz6AFMIXkGi0Hb5a/vTyW7Fo7/qYtXNlLNy2Kn7ml//eD7zZaDx2/f88CR0PXhP/3z3DI/Gtb75u1RcAkO71b349Pjp9Wvvh3I9zjMOPc7XiWU9PV/zzf/8v4/GNS+OzGxbFY+uXxh+/+T+jecNWR6B+hC8gTbO1z7HZ/iOuvP9urD6yvR2+luxbH//oX/9q+4yu8Xg1MWD9uPGrFc6m9ff/QDhrHfi6ZtVq4QsASLdh/br2GaStbY63H9Hw173ab7Tu741/99Cvx+ytK9orvhbvXB+X3rseXusI1JHwBaS5Fb5uRLzzF38R2/5ve/fhX3dZ////9x98lWbvNE1LCy1lg2xl7yEoo3RmNknbNHvvNKOLqShDGSrwAWTLUBQXKspSKAoUmaIFREYzn7/zus65Tk8LtKVJOenJ4377vMg5SSefG75feV7X9bpuvFpL++tVfXmHvlk4b6tjjZGzvr7Irq/I445W6ckpOu2kkwm+AABAVL236d2ss047VSlxca7P8WMdxmPGV87e03RpRaGKe4M7vnquu1Lvf/whwReASYngC0DUDGkwHHzZgPtbHr5by9e3aPnaZi2sLdHMnJxwA7crwVdGytbHJIM/N00zc6frcY47AgCAKHrs579wxxxtt5dfqBuPGV/26+x/6IEqaq1QXne18jur9L07b9GHmz+RRki+AEw+BF8AomZYQ8EGLJR/3fn4Qypb26TS/gY3k2LurFmuAbQjjz7s+qLB17ZHJbNT05U4JU69Xd0EXwAAIGrW9PaFb3L0i3SR8013ecdXoP858oRjtaKvyQVfRatqdccvHgh0XaPs+AIwKRF8AYiacAM2NOze//zJ32rF6maVrml0O7+OPelYpaUmKishUVOTLMRKUXJSglsVzU7c8QwMC8z80QEr+3nWYNrcr68feaT+9fab66Ld9AIAgMnn3++8vfyE445VUtwU15d80cDLfnxOenq414m8+TorNUmnL7pAZb1Nym+rUuGqet33y0el4VFyLwCTEsEXgKgZHN0y3N48u3GDKte2qXx9qwu+zrrwHKWlJyk3Ld0FXXZMMTUluIMrJ3nndn35owP++IA1iBZ+7T11qu6843Z2fQEAgC/dPXffpdzsrPAMUutPdvZWRz8E33+0vsjPB8sK9EvTc7N1UXmeSnqbVLKqwX380wvPyY9WBYDJhuALQNQMbxN8vf2/TWq5qjccfC1alq+MrFRNT89QZnyCC77SUkOrnDsZfEXOBvMroj78ys9bTPAFAAC+dMVFBYr/6lfcri1/Cc/OHnXMSksNzzH1oxz8rZD2er9D9lNBa4Xb6bW0p1HVl3frrQ/edf3W6CjRF4DJh+ALQNSMRrwYHh7WhyObdeUt17mrt1dc1qqytmrNnDsz2NwlWCMYbPTc7q2knTsGsG34ZQ2iXyE9cL85eu6ZZwm/AADAl+aZp//iehAfXllfYmXh1U5f3pOastUcUz/Swb5+zFknqKy3QXndtSrsqtOaG6/RQGi718jISDRbPwCICoIvAFHlVh5DjZhN+rr/8Ue0sq/J7fiqXN2io085TokJcZrqdnilulVOa/Z2JvgKz7oINYW20yvyqvCUhHh1trYRfAEAgC9Ne3OT60Fst5e/0dH3Ka7P2dEM06TErX5c+NKfQH9knz+3eJ6W9TUqf1Wd8jtqdPcvHuSII4BJjeALQFSFFx5D12v/7ZUXVbeuww24X7GuVRfkX6KUlCQXfNlwe9/UZe3EcHtrJP3sjMibHf1uMKvDDz5Er736z43RboIBAEDse+WVV3TEoYds6U8C/Ywt5oWPOKbueJSDBV9+N7vvh2wXmF0AtM8+M3VpY5lKu+vcjq9lfc16dsNf3ULjcPTaPQCIKoIvANFju+5DS5Cj1o0FXr/74fvq+8GVKlndoNK1zSpsWKEZM6eHGrtUpScnuebOz8LYqSMBoR/rjxL4nWBu2H2g2bxs3Xp2fQEAgN1u/fr1wZ3robELtrDngy/Xn6Ts3I5219ckBYMv//OSkhL0jRO+rrzOKi2z4KuzRs3fXaNNm/7tFhjtuCMzvgBMRgRfAKJndMuHkaHgkcdBDen7d92s5etaVWLHHfuadejhh4RmV2QEQ6+ULXO7trsiGrri28rv8PIrrFtmgKXq2COP0huvvf5YtJthAAAQu1577bXHjj76aBdUJU+Z4m6tthmmOSmpWx1X3JmLe/xOMVe2kJearJS0ZH3rkm+rsLdO5b2NKuis1ZofX6uhwc2ux9o8yp4vAJMTwReA6Ald6jgY+KfLwEZtJXJYD//hcTfgvnJ1o6rWtOi0+d9UYnqyC6mmJqQEGsR0pSTv+NajHdW01DQ3W8PqO1dczq4vAACw21xz1ZU7dWvjDkc5JAR3efld8NbH2BiInNm5yqstU1FPnfK7qlXcUau7f/mIu0DI9VzDI8z6AjApEXwBiJ7PCb7++s+/q2pdu8rXNmrl2hYtrF6qnJm5yk5NV+aURE1LzVBqys4fdfzcowKJSZqZk+MaxiMPO1SvbnyZ8AsAAIw76zGO/trhW80b3dVyRxwjjkXae+uLjjr5WJW2V7vgqzhQZasa9acXngv3XHbckegLwGRE8AUgegK91/Bo8DbHYBs2opGRIb0/9JFWXXuFG3Bvtzvadv1Djz0iOAQ2LskdCbAt/WNtHO3Xs+OQLgRLS1VXZzvBFwAAGHc9nR1uh9bOjGrYUbmdXqGxDTnJKW5OWHp6qr5deKnKVtWrsLtGRZ3VarmyX2998G6459KoiL0ATEoEXwCiZ9RudQyuPbphq6PDLviy4as/fuAuLV3doBWXt2lFX5POu/QCpSYmKNeOOybZnK+xN47+1kd/7OCgufvp2aefIfwCAADj5i9P/lmHHniAC6zG46ijjXtw804D/dC0lOCQ/Flz91VB4woXerlqq9TN99/h5noFe6xw6wUAkw7BF4Doiei+3DXbNoNCtgNsRE9teE7L1rZoxeXtKlvdpOL6Fdp77+lut5c1epmpaWM/KhC64dEqJS7ONaMlxUsJvgAAwLhZXlKqtKTEcQu+UlNDPUxCogu+7JjjCeeeppKuWjfby4Kv8lUN+uvGF0OjJBRebASAyYjgC0DURF6pba/97i87/vi/jz5Q5/WXadmaZheArexr0nGnfcMdcQzezDj2GRnWhNp8L2sep6dnuAAsN3uqHnrwZ4RfAABgzO6966eaPXNW6HbqtJ26tXGHRx3Tgot2GXHxrieyOaiXLC/Q0u5aFa6q1ZL2CnVds1YfDn4cXFQMtVsEXwAmK4IvANHlZ06MjvqX4S359/z6Ea1c3aLStc1avrZFl5QuVk5ulmsesxLHJ/ianpXlwq+poRkZKQmJOuO00/Xqq69ujHazDAAA9lxvvfHmDWeeelqgzwiGXra73A+kH/OudRtwH+hZ7NjjEScfp+LWahV0VatoVa3yO6t0+6P3aMimqA6PhGd7ccwRwGRF8AUgikbkr3b0V2zbbi8n8Oalt/+p+stWqbi/QWXrWlTWUaP9D9vfHRXISUkfe+OYGrwRyW53tNArM9BAZqUEGtNAM9nZ2cmuLwAAsMs62trdTFLrLewyHQu/bNFtPEIvm3eam5buhtqfu/hilfU2ueCruKtG5evb9JeNf9Oovz47UIPDQ1sWFwFgkiH4AjBhDQx8ostvvUGlPfVasbpZy9a36sxLv+mCquz04GB6O6bob0iynVs56enBryftuHH0NyKFjw4kJrrP5WZmat/p0/XzRx4l/AIAAF/Yzx99WLNn7u2CLhd4WfAV2l0+5hlfycGFu4y94nTgYQdpcXuVigJV2lqlBT3VuubmH+ijoYHwDq+RoS3HHQm+AExGBF8AJrQHfv+Ylvc3qXR1kzvyuLS5QnP331cpCfHBI48pKeFBsRZaWXNp73cm+IosNysj8POtMfW/7mmnnKqNL79C+AUAAHbayy/9Xeefc7ay0lJd8OUX6mxn+RftTz4z+EoJ7lS3nueMi85TUU+DCjtqVN7bqEXdVXro8cc0pIijjSNbbnUc4cAjgEmI4AvAhPbav95QyzVrVbi2UWVrmlW9tk2nXHCGO+5oO7vslseM+C2rqD7A2tnmMTgoP8n9PL9zzIIvKwvXmpsaCL4AAMBOa6qrVXJ8nFITE8Khl79F2sKv8RjVkBnofeYesJ/m15apeFWDCrvqXNkO+X+++YbcPdkjW8ZHGBsnQewFYDIi+AIwYblbHodHdP29t6lgTYNWXtauZX2NWlxfptlzZrrmzx9tDB8f+AINpQ/JfFDmwy/foNoq7Yycqfrxj24m/AIAADv0o5tvcb2DmyG6zaKa71nGGnzZTjKb8XXqt85WXnetCjpr3a6vS1vK9Z3bb9TA0GBwbqrd6BjBgq/hz265ACCmEXwBmNhGpCdeeFor1repfE2L2/VlNzyect5p4eH01gRa6OWODyQk7vSur/Dqa2jnl5/x5X+uBV+26+uQA/bX7x7/FeEXAAD4XE/87vc66IAD3czRyD4jecqU4FD6UAg21rL+5MAD5mpJ/Qot6a1XUWcw/Fra16Q/b3h2SwsV2vHlP3KzI4DJiuALwMQW6NA+2Pyhrrr1+kBjV63yK9pd+FVYu0z77DNTSYnx7tijayiTQtd7R8z92tExx8jVWB96+ZqWkRGe+XX2qafqjVc3vh/tphoAAEw8b7z2+mMnHn9C6BbHYOBlPYQ/6uh7ji8yjuHzZ3wl6LRvn+N2eeX1BIOv/LYqXX37ja5n2naAPQPtAUx2BF8AJqzhET+EdURPPf+UVq5t1bL1LSrrrXe7v8447yylZ6a5Ia9+55fN/PIh1o4aRx+O+QY1styKaqBhtWMJ1rCmxMUpb+ECbfrPO2dHu7kGAAATy+KFi5RuIxdS09zs0RkZmeE+wxbS3MU7gX7CeouxBl8HHrSfLq0r0aKuGhd6WVWtbteTLzwT6JpGwkFXZOAV3vVFCAZgEiL4AjBhWWtmtxJpYEBDgx9r9U+u0dLVDVrR36jSNY1aXluh3H1mKC1ty5FHv6r6ReZ8Re722nY3mPuYGLwt0l63NNRz5BEAAIQ11NUrOz1DaUnJbsdXblq60qbEuV3o01LTlLTXXq6PGI9jjlbnf+tcFa1r0iWdK1XaUaeSrnqtvel7+p/t9tKWcGtoaCj82gVfbi2R4AvA5EPwBWDiCl2/PTg8pCGN6M/PP6O6vlaV9zdr6epGFfQ16oxLzncB1fRAk5mclKDEtCRlpKcqO37sjaWt2FrT6ldpLfiyxvXqyy8j/AIAAP/f5WvXKDs9Lbybyy+ojaWmpQR7DrsV0noQ63GyEhKVkpKkg446TIsbl6uop055vbVa3F6lld1N+stfn2aGFwB8DoIvABOXhV6bB0KHHYfd3Iqrb7ley3sbVbSmUWWXt6mosVwHHXSAawxt2GtWZrrb/eUG3Y+x8bSdXrZSa02sHXW0owrWiM7MnaYbr7+O8AsAgEnsh9dd63oCu2zHQi8Lv3ZmxugOKyG44Ga/ro1wsNDL/brTsnRh/nyVdFngVaGFXZVuqP0VN1+r/w185FqnbW9yBAAQfAGYyEYjGji3+WtEf/zbU6pa1+mCr+K1TVrR1xRoAucpIyMteCQxOXR0MWXswZdvYP2Rx8SvflUzsrPdkYXZM2boxz+6mfALAIBJ6Cc336R9957h+g27xdHv+BqPmxv9r+WOR1oIlpSslOREHXnScSpprVHRqmDwld9VreW9zfr9809pOKJ3AgBsjeALwIQ3PDgUDL5GhtyK5lW3/dDdZFTc36ClfQ0qW1WvI044KtgkJiS5BjE1dezBl7/R0d/w6D83PSvLhV/77jNT99x9F+EXAACTyK233KxZ03Nd6GU3S1tQ5Uci2A7xMQdf6WkuTLPFPFvUs99nxuyZmr+y2A2yt9BraW+9Ctuqddkt1+qDkU/cWIjR4RGCLwD4DARfACasoZEtu70UauaGNKw//P1ZVa7t0LI1zVq2vlXFgeZvQUWRZszI1dSk4BFFG3g/Xiuu/kry3MxM19BaGGa3PaYkxLvV3h/fdCPhFwAAk8APb/iBZs/c24VTcV/5f+HLb/ylOGM+5miLbEmJwVELoct1UtKSdeqF52ppZ50Kuuu0pKNSpT31Kmur1Z+ef9pdBOQuBBoYJPgCgM9A8AVgQvPXb/tB93ZD0Ycjg7r5/rtUsqpOy9e1qqiv3h15POPbZ7ujANY02grsWBtP38z6GV+2+mrhlwVituPLXidPmeIa4Bu+/z3CLwAAYtj1116nObP2cT1A5EgE2xVuPUPCV77iRiKMx45zm+1lxxyTA33NgUcfpoKmCuW1Vyu/q1Z5nVUqaqnS9bfepA8HPgoPtbcbHEcZ8QUAn0LwBWBCCw62Dy1fWvgVKHv36ltvqOP7a1ViRx3Xtah0dZNKOqq13+H7a2pGujLjE8bceCbHx7kVXR+CWQBmDW56XLy7qtwFbIH3ForZzq91a1frv++/+5VoN+YAAGD8vPufTXPXr12naVnZykxN22phzPcM/uZnH4qNaeEtdMTReozcWdN1UVmeirrrtSTQ51j4ZR+bL+/Vy69vdF2ScUcdFX4LAIhA8AVgwrJZFe6Uo0LHHsNLmsGv3/uHR1WxptXN+SpZ0+SOPl5SuljTcjI1LWHswZeFXolT9goOl/UrsOnprhm1OWIZ8cH39jW7ctxulKyprtSmTZuyot2kAwCAsXtv07tZTQ2NysnMUnpySrASEz81zN6PQRiP447WY9gCm/UWp5x7hpZ3N2pRW6U75ri0u97d5Pjjn/3UXfrjd8S7hUKOOQLAZyL4ArDH+uDjj3T59d9TSVe9G3Rftq5Zy1fV6eTzTlNaRrJmJSYrIyHO3fhoRwVsBTUnMbiSmpw09mDMN7qRTa81vEsuvVSvbNjA0UcAAPZgr7zykvKWLHI7wO04o9vllTj2UQrZicHdYmmpya7sc36Hlw2yt69nBnqXg445XPn15eHdXoWr6rW4tVLrvne1/vPRB25hMDwSImR4lC1fALAtgi8AeyzbBfbkC8+pbn23SvobVbKmUUu7a1XeXquDjzlUmYFGNScjVUlxU5STmRHeqeU+ho4wjnUGhzXBPvhyA2jj4tz7s089VY/9/BeEXwAA7IF+/fgvdcrJJ7pdV7nZWeHFLb8LfCxlg+vdqITkUNAV6E1ybHEuJdhPZKamaNr0HOVVlLpbHG2ul+32Wty8Uiv6WvTUhr+5gfbhkGs08Hp42L8EAGyD4AvAHm0w0OJdf8+twWu9V9Vq5WXtWr4qeMvj3rNnKClxSvBmpIREF3jZMQQbUh9uLsdQ1gBbyGUfbci9b4htuK2FYgfN3U8/vO5awi8AAPYgN91wvfafva8LpbLSghfa2PPdnvXjEXxZ0OUWz1KCA/KtR7Fbqa03sR4lIydT5y+6WGWd9crrrlVeT70WtlaopL1WP7j7VrfTy93iODQUHgFhO7/ccPso92UAMBERfAHYc9ktj4F/vPKfN9R0ZZ8bdL9sbYsWt1eofH2bzlh4gdKyUzUt0EhmxYVuSMpIC87jSkgcl6OOroENzfmw137ml/9oNz+Wl5Xq1ZdeJgADAGACe/75v6qiotwda/QLXD7osue6fd6CqbH2DbZb3EIv29ll4xemJaW44Ms+b0cfjznzJJW117njjZd2VCov0N8saatSx5Wr9eo7b7kWyB1xDM33iky7Roi+AOBTCL4A7LmGg1v8bbv/b//6Z9Ws7VTRqlqVrm1WQX+9SnvqdeJ5pyolIV7TQ7cwJiXGu2bTjhSMx44vH3jZa9fIWtMa+Jz7fEJieAbYaSedqAfuu5/wCwCACejBB+7TCcd/XakpwbEI9gy3S2zsGe4XuOwZ7xe2xlLupui00HD8wO9lPYrdGJ2Zma5DjjxMhc2Vym+r0uLOai3uqVP+qjot727WY3/8XXC31+iWwGt4cMhdBqTQ54m9AODTCL4A7Ln89v7APwYCL2/92d2q7G9z877y+wJN4rpWFTWv1BHHHeUaWRtOm5aUGA6qxmOnlzXBfvV22/kf09Mz3EqurQ5bzd13HzXV1evvG14kAAMAYAJ4/bVXNzY21GmfGdNdGJWeHFzEsh3bFnL5xSy/wGXP+vHYLW6LcPZrWZ9gIVt83F6afcj+mr+8UMVddcrvqNGSrhotbq9SQVutbrz3Dn08PPipVsgddwzZdtA9ACCI4AvAHm1w84ALvwaHh/Te5o/0vdtv0vLeRpWtbdJSO/rY1+huRJp14Bx3pMCOO7rGNXnstzL5oMuvBvsQzF67obVxcS4Em56VtWU3WFKiTj3xJN19x52EXwAARNH/3X6rjj/2GNcT2LPbH2O0C3Bsnpd/zkfu7B6P0MvN8UoK3uxoO77s95+13z46fcG3VNLb5MKuvPZqlfY0Kq+5Qv3Xf1f//viD4Eb30eDOLh9yud1f0qfeAwC2IPgCsMdyNxhZfxeacWEvN7z5ipqu6lFpf4OWrWl24VdZf4suLl6sWTNnKDs+OOTeXx8+1h1fPgCLDMP8a79S7EOvLY1ziqZlZKmwsFCPP/44ARgAAF+iP/z+CeUvyXM3PtuimD2f7Xltl+HYDixbpLLwy8/h8mMM7Lk+HuFX5K5zC8Gm5+bonIvOV2lHnRZ11aiop8EFXxZ6NV/Wr6df2uDGOriWZyh4nNFudPTjvez14GBwNxi7vgDg0wi+AOzxfJPnGr9AC/iXvz+vivYmLV3dqLJ1Le62x8q1bTp38YVKnxpoZJMTlJscvFUp3Iha4xtqfv0q7His6m53x1hykrs1qrm+Thte+BsBGAAAu9GzTz+jlqZm7Tt9utuR7RenIo8xjtcoBPu1p4bmd2UnJrnjjO73SQn+GPtaZnyCm+t18iXnaXFrpQu8CjtqNL+9WgWd9SrvbNYjv/lVMOBiJxcA7DKCLwB7rPCq5kiwGbTgy4a+vvvJh7r/Vz8PDrrvb3S7vux1zZo2nXXRucrMCjSkiXHu2KOt7LqrxENNrz+66IfW787yRx+tDj/4IHW0t+rvL75AAAYAwDh65aWXtaZ/tY454khlpqaFd25FjiwYz/ld9ly3eWF+R5ffBe7eJwZvmXa/V0aajj3leBU3B482LmqrVEFnbaBvadGihpVurtcnI0Ph3Vxb9T4AgJ1G8AVgjxVe/fRD7gPNoG38t/DrvY/+pytuvU5lq+pV0FUdHHS/qlYruut1/FknKSUz2R159Dc32Wt3vCE0xHY8bm3amfKD8P2xiiMOPURdba16ccPzBGAAAIzBhudfUFdHp446/Gsu8EoJPO+Tp8S757wPuSz4iryZeVwWtvwRyZTk8AKXvfYX4GTExSs9PVVHn3a88hrKVdRZ6wKvJR3V7gbHpW11Wn3DNXrzv5tcT+OEFvnY+QUAXxzBF4A9nrvGOzTry243ci8D/3z1P29q/Q+v0fL+FpWsaVJhb51K+hpUFXh/9JnHu6bUD7S10MuuErcgzEKv8Rh+v8MKNOB+1deabX/swhrjA/ebo9rKKj3+y18RgAEA8AX89le/1MplZTrkgP01LSvTDaq356vd1OgDLh94+R3YkbM4x/p8D+8cD/QZtqjlgq/Ar28zxKzPsK8fdtyRKmitcjc32g2Oea2VWtrTqHnNK9S6rk+vvPOmm+u1eXAg1Oyw2wsAdhXBF4A9VnjVMzTc3odf9nmrYY1ow+svq/mKPhV116u4v0Fla5rdTY9LO2t0/CknKC0jVclJCZqRne12fVnZLYzJ8XG7f7dXcvA2J/toAZg12xaC+aMXSXHxmrvvbF3y7Qt13fev1caNG9+P9jcTAABMRK++slHXX3ud5l18iWbPmOGesxZ4+d3VLtyKT3DPXH+8cdudXuM23zM+ON8r29c2v9fRxx6l0qYqLeoI1Kra4DD75goVtlWrYl2HnvjLk26nlxtcH7rIZ2RomN1eALCLCL4A7LG2agAjw6+Io4/WOP7mmT+qZnWHSlY1aHF7RaDBrHMBWEljpY45/QSlZKYqMSEu2JgmBm9u8jc27u4dX9aE+8bY/77TMjLCO7+sLISzIxJHf+1wVaxcofvvu0dvv/XGDVH+HgMAgKj619tvrnvwgftUvbJcxxzxNU3NSHfPzJS4OPcs9TuvfPBkz13bdeUDqMjdX5Hh1Hg8322ofZaNUgj9nvFxeyk1PUVHff1o5VWVuZCrsDfQl3TXal79MpV11quyp0W/evaPW/U47mPg/wYGBr7sNgsAYgbBF4A9V2TuZfO9tjkC4I5ABmweHXbhV8uV/Vqxulmlq4PHHst6m1TaVqvjzzpFyalJSkmI1/T0DBdCjdecj+2V7SzzO7z8arQ16/beN+t+95f/ur3fJzdXRx92mBpqavWTm2/RK3//B8chAQCTwquvvrrxjv+7zS0EHXnYocrJzHDPRnt++otp7Jlpn/Pvt93Z5Z+nkUceI489jvkZnxoM0uw2RytbvMrIydRhJx2rhVWlKlxV74bZ2w2OdsyxuKtOFT0t+vOGZ7V58JPwAp4fah++vTq0+wsA8MUQfAHYc4WONrqXEbu//FFH1zRuHnA/bEAjevyZP6r+8i7ld1WrZH2Llq5uduFXcf1KnXrWaa55TpsS51ZmbefX7g6+/E1PvlyTHNppZo23vY5szF0zHhrEb2UDeqdlZOnwgw9xxyF7ulfpoQd/ppdeekmbNm3KivY3JwAAjNWGDRv04IMPas2aNbrooou0//77u7lZNovTbkj0QZWNDLCy5+S2z9vIYCvytX/vn7v+eTvW53tKSvDP5hfTUpITddTJX1dBU4ULveatqg70IrVu11dxa7VKuxv0y789qY+GPrGUyx1r9OGX729shml4VzsA4Ash+AIQs1wuNrJl59eQRvTAb3+hgtYKLVvTrKWrG1XQXaPS/kat6GnQcecEb3tMT7bZHInhwfeZoaMK7thCoCG2ZtZuY9rdwdiOKnLF2j5akGaD+Y84+GCdf9ZZaqip1tWXX6aHH7hfLzz3rN5847XH/vv+u1+J9jcxAABs6603X7/r6af+rEcfeUjXXHGFGqqq3LPskLlzwyMA/A6uaFdWWmo4dLPnrvUGbpd2oG+wr00Nze90YVpGmo45+RsqbFjphtfPb6/Uwq5Ata90t06XdNXrh/fcpv/aTi/XrAx/fmMDANglBF8AYtaIXxUNrZjasPs33n9HP3r47kCjWauy1U0uALPgK7+tQsu76nTmxecqa2p6oKGNC+76SggeNbRG1m5l8tef2wpu1Bvv0DB8vzvMH4f0RyQTv/pV14TPyJmq/Wfv62aEnXvmGSosyFNNdaVW9/Xr6iuv0s033qR7fnq3Hv7ZQ/r5I4/q0Ycf0SMPPex2j1EURVHUF60H73/AfbRniX+mPHDf/brrjjt1209u1VVXXq41q/vUUF+rvCWLdM7ZZ+rYY47SnNn7KCsz3T3DbDB90l57hY/823Mv8vhiNMtCL7st0j9r3W6z9HS3AOV2oMUHQ7Gs3GydfuG5Km6ucsPrC9qr3RFH23me31nlbnW89qc/1rtDH8rupHZHGtnRBQDjjuALQMwK517DWxpJC7/+9eG7uuW+O7TCbnrsqHbB1/J1rSpaVauaNW06d/4Fmj57upvL4VZsUwJNbkqS0tNSXGM7LdDgZsd/+ijFl10WdNnHyHkkkcN6fUgX+Q2DNeu+UhIC30BYgGfXq6dnKCczK9DIZys3e6qmT82hKIqiqDHVjJxp4bLnS1ZautIDz1VbSLKy2ZpJcVNcud3UyUmuImdybTt/a9xuXhxD+T+jjUaw0MsthgWeqfbR+gTrG6bOyNFZC77twq7FndXK665VfluVO9a4uHG5StprdeO9t2vT5g/CNziabeeVAgDGjuALQMzyTeTw4NBWszIs/Hr3w/f16J9+o/q1XSrqrFXJmqZAU1qtRa3lql7bpvMKLtGcOftqanZmsBlPTAw3tlYWiEW78Y4c4rvtNwn2ucgbqvzOsMiQzM8U2/bHURRFUdRYyj9P7Dllu6D85yIXY/xNiva88s+xyOfT5y3mfCm3Lu/kM9h2htuxRhuH4AKwwJ/NQryZB83RtwoXuB1dC9oqtLAzGH4taatSfkulald36LaH7tH7Ax/aPq/wTFLXs4wSfAHAeCP4AhCzws2jH4LvK8Rmfv3uuSdV1demou56N/PLAjDb+VW+pkULy4u1/5GHKDMzPXj9+V5xweY2M0NJSdE/arHtzVN+Vdw+Hzk4P/IbC/8NgzXrdgOW/4Yk8puQibCaTlEURcVGRd6a6J8vkQtJ9jyy9/7iFn+zsn/GRQZjPkybKH+njPhg+GW7vJIDfUFGVroOPfIwXVhZpCUtFe7WxuJVDSrsqtOiwPuCzlqV9jXr1395wvUgg8MDWwbWj4yGFucAAOON4AtATAtf/T269c4vuzFpJPDik5EhPfG3v6hmdYdKAs2pzf0q6qlztWxtmwqbK/X1005UdlaGW821nV6JCXFuWG20G28fUvkVdnttzbdV5Iq4n/vlZ39lh4bu2rBgf1zSfzPhV+XH5Tp3iqIoigpV5M6t3LR09xyKDLsiwy//4/1zyd5HLuJMhL+L3zFtxxqTkwPP4ZxMHXP6CSqqK1deT73yOmtc0GW7vuzmxsU1y1TZ36bHnn9yq6ONvjfxF/GMMOQLAMYdwReA2OXDrpBPzc0I7f4aGBl2q69tl/dpWU+Du2WpqK9eBT21Wtpbr7KuWp01/3zlzMpRUnKcpmakKj0pPuqNd+Q3A595XDE5yTXkmakpW/2YyG9AIo+e+G8q2PVFURRFjaV29KyJPPoY+fnwruSI3WGRFXnkMZplgZz78weerzYDdO85s3TmvAtU1FLl5nj53V12tNF2e9nxxsY1XfrdM39yO73czq7h4N4ue+37k48//vjL6Y8AYJIh+AIQuyzYGg0GXnbs0Z8mCM+6959QcOj9C6+9pNU3Xq3SnnoXfFnotbSvQcW9wdfzK4t0yFGHKDVhiqYnRL/xdivN2+zOijwaYg25BV9+WHDkNxjbDgv+vF+HoiiKor5obTvT67OeN5HH87ed/xVZnxWeRfvv53db243PRxz1NS0qLVBpW627sXFRV417bTu9lnRUa2F7pVquu0xPvPhM8Gijv7kx1H+4vkQRlzmy4QsAxh3BF4DJK3Tk0e8Ks17z5bde14133qaKzmYV99S6I4/5fXUqXhs8AlkSaGJPvOB0peamKycxONDW7ZAKNL82BN/d5JSW5laD3eq1HSu0W54CPzYnOSV8S6TdEBntxp2iKIqiJmNNTUgKlj2fQ2MMfLDmnumhYfX2Obt50haS7Dnvfkzgazbba+9ZM3Tit87S/MYVWtxd64bX20yvpS3Vgff1WtJWo6KWGq297rt65/13g2O8RkYItgAgCgi+AExadrwg+CI4W2Pz4IAsAvv3xx/ood/+SjXr2lWyqk6F3TVu55cFX6XddVreUauLihfogEMPdINsk+PjXNNswZY1w66pzkhXSnJi+Mr2yNlaE2G1mqIoiqIma9mFNZEzMiN3lbndaJnpwYWswDM7N/BjsxODl8akpSa7C28OOuowXVy4UCUt1e4Yo+30WtwePOKY31ET+FilovY63fnYQ66nsB1d4WOMBF8A8KUj+AIwafnVVzdnIzTvyx85sKH3z7z6ovq+f4VKO+pcAFa+vs3d+FjUWa2KtS1a0rRSx517qqbOyHGNc04o/LLXFnplpKcGm+SMNDcc3w3AnTJF6XHxmp6WHvXGn6IoiqImY9lcLnsm+/I7uqzsdXxiXPD5nZDodobZs90WsWyW16nfOluLmsqV11yhkq561yO4AfZdde6G6PnN5Wq+rF+//etT+iTQVQwGKjLrGhgYiELHAwCTG8EXgEnLj9hwO78ibnscHBx0X7eh92++9x9df8eP3LwOm/1VuKpWxf31yl9VrYLA++X9LZq/vFCHHnW4u+nRGmg/uNeOSbgQLCHezdiyhtoff8xOZIYWRVEURUWjLPjyYZe933bXl7890o0uSEp0u7yOPOFYXbqswA2wX9RRpbzuWi1qq9Ti1koV2SD7ppUq7W5Q703f1YuvbdTm0WG3kGYzRr3NmzdHo90BgEmP4AvApOV2d/mGNPBmcPNAOADz14oPDg/pfwOf6OHf/1IVPS1u51dJf6O78bFsdZPbAVbcVaOC1gqdu/hCzTl4jlKS45VtO772ilNucqo7UuGPU/hG2h+JpCiKoijqyy0/WN/P4fSzvvy8r+kJwbmcKSlJ2ueQuTq/aIGK2mvcjY0FNsC+rVKFvQ1aEugJbLaXhV9lnfW6+d7/07uffBAepeAX1gY+2RJ4jXDWEQC+dARfACY12901EnnD0shoxFaw4I+xcMxmf/3578+p/4arXfNrq7s26H5pd60LwQp769zNjwX1y3XKeadp5qxc10BnJSa5subajkzYjBA37ys9LeqNP0VRFEVNxvLPZDfEPjTHy+3STk5SclKC+9zsfWfp9AvPdUcal3TVaF7zCi1srXDHGQtaa5TXXht4X+Wq47or9cQLz7odXuFeIlC2izwy53L9BgDgS0fwBWDSCjeko1s3o/baylZq3fyvUNO6eXjIHX286xcPqfOqdVraWeOOP9rOr+L+BhV016ikr8F9fmH1Uh13+oluHkhiYry78dF2foVvjkplwD1FURRFRaPcjq/QwpSVLUjZ8cep07I1c799goFXVZlKLNxqXumONuavqtOSjmo3wL6gzY42VmpFV7N+9ODdeuej/waPNQ4OadRuivbhV4gfoWCGhoa+nCYHABBG8AVg8gr0pEMDg+HmdGhk2FXkhi/XoEbsBrMPNpb2hdde0WV33KDK9e3Kb6twO7+Ke+rczY+Fqxu0pK9WZb1NunRlsb5x5smaOXOGC7xsldkabn9tOkVRFEVRX265gfYRr9PSUjRzziydfN4ZKqws07zWlW6XV35XrZa0VSmvtdIdcbTXtutrSVuN1t5ynZ5+aUNwZIKbnTDymYtpnl9UAwB8+Qi+AGAXDQaa3d8982d1XbPeNcQ2+H7p6kYV9tSoaFWgYe6rc0cgLQy7tGapvn7Oqdp71gw3S8Tmh9iRCgvA/FwRO3bhrlG3K9aTgyGZ7RCz9+GGPTXFNem2g8ztGksNhmi2Wu1unwrdLGm/R7S/saAoiqKoXSn//LNyC0YRYwPcczHw2n/dXrvnX+Br0+x5Gvicvc+OeG8/xj0rA89W29llF834ofVzDpqr488/I/CcLnW7uua1V7gB9vZcX9CyUgs6qtwsL7ut0WZ8NV7dr1//9jd677/vu17Adob7mV7hcQkAgAmF4AsAdpE7Chn4+Op/3taPHr5bNZd1K6+jUvld1S7sKu2uCw7DD5TtCLMjkAX15TrjovPcsNysrAzXgFuIlZaQEBx4HwqvrCm3r9l16hZ0+ZDMvmaNvM0jcZ8LXcNu3yi4Qb2Bn8eOMoqiKCoWyg+h3/bzbhi9D75SgotA6Wkp7rmZlJSg9PRUN6vLblWOXGDyIVp24Pl74GEH6cx5F2hh/XLltQcH1NvOLgu9/PvF7aHXzSvdBTe3PHCn/v7Oa+Hd4SZyF9ewP+YIAJhQCL4AYFeNBOeEWY87GPjnC29t1E0/u0v1V/YGh9931boZYKX9jSrqqw8OwF/d6EKxhS0r9M35F+qI44/RtFnTlZqe4kIuC66s3Gp16HW46bcdYaFwzJp3H265oCtlS0DmVrQTuTWSoiiK2jPLAiz/PPMVeTzRBV2hZ53t3PLPQL8YZF+zj1lpqe5zCfFT3A2N++0/RyedcqLmleUrr26FC7UWtlcGd3V1VKuwrVpLW6rdTY22w2txY7lWdjfp+z/5oZ79x/Makj3ztwRdNg7BzQJVcDGMo4wAMDERfAHArrL+dnTLR3v5SeDN86+9op88dK8qLu9QcW+98jqrlNddrSVdwY8WfNkQ/JW9LSptq9XiihI3SHfOoQcoLTtdycmJSglUTlyipk5J0NSEJLfLa2pammvk3S6w9NStjn34bwbc6nig0efWSIqiKGpPrakZ6e5ZFnkRjC32+KP9tliUGngW2vPQfpzt5rJdYPa8nJ4YPPKfHhfvnqW5s6brsBOO1mnzL9BFFUVa0lKhi1vL3bHGvM4at5vLdnq5EKy1QvNbV2pRY4Uq+zt08/136eW3Xg882UeDwVboUhwbVh8+3ih97msAwMRA8AUAu8jd4OR2fY1uucEp1O/a/K/n3n5JP3jgNlWtaQ3v/ipaVauCrmoVdteooKfWHYu0Y5B2LLK0tUqLygt1ygVnaO4RB2rvaTmu+ffHHH3jb02/hV7+mMdnzUFxM08mwDcvFEVRFPVFy+9utopc5LGPfsezn4npj/db0GU/3kKwvfeerq8dc4TOueh8LVhRpIKmCjeofnHgebsg8Ny1HV52U6MNqy/uqtPSzjotbFyhRW2VKr+iS7fcd5e7xMbfvzjqHvajW93UGClypxe3NgLAxEPwBQC76OPhQRdwOT748rvAbFXYvRnRa2+/rtvuv0s1/a0qaq9yQ/Ddzq++ehd+2fsCC8ICzbgFYGWB5ryoeaUuWpavU+Z9Uwd940hNm723G8Lrboa0ob4JwaMf7ohHqPmflprmKjwsfwJ880JRFEVRX7RsYceeY/ZMy01L3+rYvz3z7IKY7Pjg8X87Fpk5LcvNzjz6jBN15vxvaV5FsZY0rXRjB9xNjIFn6qKWCje3yz6WdjSouKM+8L5a8xrLdWlDuVau7tBND/xUz/7zJQ0MDYaf7e7259BtjTbbayS0wmVHHP1ge3Z5AcDERvAFALso1Ac7W11T7r9gC8SBhtlWikc0rJff+qdue+RedXx3ncr7W1XYYbdGVbpdYCX9wdlfFoDZ+6W99S4Yc58L/JjFtaW6sHiBTvnm6Tr4yIM1fZ9c1+inZKYqKSVR/nikBWH+hke/Iv55Fe1vbCiKoqjJWTt8PoV2erljjYkJSkqMd8Pq7XhjRkaasrMzNfuAOTrm5G/orEvO14WlSzS/tiw4oL6zxt3GaDO7lnTVuAH1tpPLAjB3A3NbtfLrK5TXUKGS9nq1fXe9fvLI/XrxjVc1MDK85Tk+MhocVh/a5WXPeD/Pa6sGILIPsCORu7XzAADsCoIvANhVo8EdXUNDAxoeHQoefQyUNc720Qbe20drgodHgw2xrRW/++H7+uvLG3Tzz+5Q5/fWqtia8/YKF3rZ7i9fxYGG3d8KaWFYcU+dC8JsZtiClhWaV7xY51xygY479QQdfMShmr3fvsqdNtXN9/JHPwi+KIqiqIlWO/N8stldU7MzNWNGrhtKf8SxR+qUs07TNy+6QN+uKtalDcuDNy+GymZ0WbBl87qKWwOvW6vcawu+fPhlM7ysVlzWrSvuvEV//Mff9MHmj4MLVyMRYwsiRhf4Z7h/4+Z8RXzd7/ryP5bgCwAmHoIvAIgSmwLy9rv/0a//8kd9//9+pIb1q1TcUav8DgvA6lXc3+CORFogZkPyLfyyXWI2E2xZT4ObE2Y7w+yIpNXi5hW6eGW+ziuap1PmnasTzj5VR550nA488lDNOWiu9pm7r/aeNUM5uVPdavmM7GzlZmZqWkaGG5zvj0j6I5MUtd1KS9l+RfvPt5vL/pvZXkX7zzfRi39/sf3vL/JZ4p8tdmRxRkamZmZlu+dObnaWZuZO0777ztKcubM19+D9ddjRX9NxJ31Dx51/uhtG/82iBbq4vNDdruhCrUDZM9J2b/nywZe9tq/bR5vfZbc1utDLvh74+RWrmnXt7TfrN0/9QZs2bdLAwED4eRx5VJGbGQEg9hB8AUCU+CMRFoB9rGFt3PSmHnnyN7ryJzeofl23lnXXuZlgVrbry+34Cu0Gs6H4tvvLAjGr8C4xuzGyq1ZLO2u0tLs+8PMa3Edb+c5vXKnFdcu1oLJEFy8v0DeXLtR5xQt0btF8nVN4qc4umKdz8ufp3IJLXdnraNZZ+ZdQu7MKLtqtdWbexRO6dvTvJ9p/vmjXGUsuosZQpy++cLs10f9841WRv5e9tv+27Fnz7WV5wSov0EVVxZpXvyw4gyu0M6uovcYtBNmMLgu83GyutmDZMUYbVO+OMkYEYLa7y25sXNRU7obZl3bUqXZNp9beeI3u+fUj+sdbr+rDkc2BZ27EkcUQbmUEgNhG8AUA0RI6UuEG4yp4TNIa8v9+8j+99f6/9afnn9Z9v3pYV95ynQvC7NYpvxvMrmF3N0OGjkfazjCrwt5gGGYzwwrsG4bO4A4yK3td1F2v0p5GlfU2aWlfgysfnlloNpHKQr4xVeDvukfXWP/+u7kKu+omdRV0b792+PND/31O1rLgYrsV+t8t6rPL5lhtt0K7o6JVfvfVtuWfRZc2rXB/zqKehuBMrrYKt0PLdmotCO3Wmt+60r1f3Fntjida0GX/bdlHG1ZvYVh+KPDKaw4GXY2X9aj/B9/RnQ/d656hb//3P/rv4Ef6ZGQg8JwNjicYHhrY6lFsO7wIuwAgthF8AUC0jG6nRoJhmN0a+b+BT/T6e//Wk/94Xj/99c912Y9uUM3abi3ralB5T7NKuurdri77ZtrNOAl8Y2Cr5sv7W8KfL+ltcmWv3TdOflfY55TNHdve1/eMqtvDa/t/P/v/UXSrdo8u21FCTdyyXap7ctkA9d1ZO/r981sqt1u7+++/o9/H/jfO/h4WWNnti/baPmf/bdrXbSi9hWEWitnzakFTuRY3r3S/5sL65W4ovVVVX4dW33CNbnvkfj3x16f1z3ff0YduCWmbHVzbPl8Dn/OX0hB6AUDsI/gCgCj5VLMdOVB3my9t2RE26oKwf723Sc+//pKe3bhBd//yId147+1ad9P33Gp3y9WrtbK3JbwrwL5psI+2am7fTOT11Kugr1H5nVXB6qoOlw3O9xX5+d1Rkb/X7qmd2BUxgWtJR+UEr+o9uvzAa+qzyx8r29XyQ8R3tcb6+0e7xvr3H+u/n939++/qn9V/znZrWZjld25ZLWxc4coCLgu/bC7X0rYaVfa2qmFdt9be8B3dePdt+vEDd+n3zz2l5zb+Q2998K4+sUtmQs/H8ONzZOuwy25XHhoYDA6m307ORQgGALGJ4AsAomTbTV5bfW1U4dXocCAW2cgHmveB0UF3S+Qnw8GZJZsD79987x3987239fTLz+vRP/1Ov3r6T/rZ7x/XD+6+Xet/+H23Mr428LH/+u+q/0ZqT66+H36H2o3V+4Ord2tF++8X7b//juu7Ua6x/fl7brgqyvWdqJb/9xj5etvPhb92/XfUec3l7uMN992hB5/8rXtu/fLJJ/TMyy+6Hc+bPv6fPhkZcgGXvy3ZdnVtHhzYMq8rFHANDw5t/Twd3jKs/vNuXfQ7wAi+ACA2EXwBAAAAAAAgJhF8AQAAAAAAICYRfAEAAAAAACAmEXwBAAAAAAAgJhF8AQAAAAAAICYRfAEAAAAAACAmEXwBAAAAAAAgJhF8AQAAAAAAICYRfAEAAAAAACAmEXwBAAAAAAAgJhF8AQAAAAAAICYRfAEAAAAAACAmEXwBAAAAAAAgJhF8AQAAAAAAICYRfAEAAAAAACAmEXwBAAAAAAAgJhF8AQAAAAAAICYRfAEAAAAAACAmEXwBAAAAAAAgJhF8AQAAAAAAICYRfAEAAAAAACAmEXwBAAAAAAAgJhF8AQAAAAAAICYRfAEAAAAAACAmEXwBAAAAAAAgJhF8AQAAAAAAICYRfAEAAAAAACAmEXwBAAAAAAAgJhF8AQAAAAAAICYRfAEAAAAAACAmEXwBAAAAAAAgJhF8AQAAAAAAICYRfAEAAAAAACAmEXwBAAAAAAAgJhF8AQAAAAAAICYRfAEAAAAAACAmEXwBAAAAAAAgJhF8AQAAAAAAICYRfAEAAAAAACAmEXwBAAAAAAAgJhF8AQAAAAAAICYRfAEAAAAAACAmEXwBAAAAAAAgJhF8AQAAAAAAICYRfAEAAAAAACAmEXwBAAAAAAAgJhF8AQAAAAAAICYRfAEAAAAAACAmEXwBAAAAAAAgJhF8AQAAAAAAICYRfAEAAAAAACAmEXwBAAAAAAAgJhF8AQAAAAAAICYRfAEAAAAAACAmEXwBAAAAAAAgJhF8AQAAAAAAICYRfAEAAAAAACAmEXwBAAAAAAAgJhF8AQAAAAAAICYRfAEAAAAAACAmEXwBAAAAAAAgJhF8AQAAAAAAICYRfAEAAAAAACAmEXwBAAAAAAAgJhF8AQAAAAAAICYRfAEAAAAAACAmEXwBAAAAAAAgJhF8AQAAAAAAICYRfAEAAAAAACAmEXwBAAAAAAAgJhF8AQAAAAAAICYRfAEAAAAAACAmEXwBAAAAAAAgJhF8AQAAAAAAICYRfAEAAAAAdmh0dDTafwQA+MIIvgAAAAAAO0TwBWBPRPAFAAAAAACAmETwBQAAAAAAgJhE8AUAAAAAAICYRPAFAAAAAACAmETwBQAAAAAAgJhE8AUAAAAAAICYRPAFAAAAANiu0dHRaP8RAGCXEHwBAAAAALaL4AvAnorgCwAAAACwXQRfAPZUBF8AAAAAgO0i+AKwpyL4AgAAAABsF8EXgD0VwRcAAAAAYLsIvgDsqQi+AAAAAADbRfAFYE9F8AUAAAAA2C6CLwB7KoIvAAAAAAAAxCSCLwAAAAAAAMQkgi8AAAAAAADEJIIvAAAAAAAAxCSCLwAAAAAAAMQkgi8AAAAAAADEJIIvAAAAAAAAxCSCLwAAAAAAAMQkgi8AAAAAAADEJIIvAAAAAAAAxCSCLwAAAAAAAMQkgi8AAAAAAADEJIIvAAAAAAAAxCSCLwAAAAAAAMQkgi8AAAAAAADEJIIvAAAAAAAAxCSCLwAAAAAAAMQkgi8AAAAAAADEJIIvAAAAAAAAxCSCLwAAAAAAAMQkgi8AAAAAAADEJIIvAAAAAAAAxCSCLwAAAAAAAMQkgi8AAAAAAADEJIIvAAAAAAAAxCSCLwAAAAAAAMQkgi8AAAAAAADEJIIvAAAAAAAAxCSCLwAAAAAAAMQkgi8AAAAAAADEJIIvAAAAAAAAxCSCLwAAAAAAAMQkgi8AAAAAAADEJIIvAAAAAAAAxCSCLwAAAAAAAMQkgi8AAAAAAADEJIIvAAAAAAAAxCSCLwAAAAAAAMQkgi8AAAAAAADEJIIvAAAAAAAAxCSCLwAAAAAAAMSk/x+ipYA/jibMggAAAABJRU5ErkJggg==;" vertex="1" parent="1">
          <mxGeometry x="70" y="1265.5" width="297.03" height="379" as="geometry" />
        </mxCell>
      </root>
    </mxGraphModel>
  </diagram>
</mxfile>
